<svg xmlns="http://www.w3.org/2000/svg" width="1600" height="380" viewBox="0 0 1600 380" role="img" aria-label="Website footer design"><rect width="1600" height="380" fill="#E5E7EB"/><path d="M 0 80.00 L 10 82.35 L 20 84.67 L 30 86.92 L 40 89.08 L 50 91.11 L 60 92.99 L 70 94.69 L 80 96.18 L 90 97.45 L 100 98.48 L 110 99.25 L 120 99.75 L 130 99.98 L 140 99.94 L 150 99.62 L 160 99.02 L 170 98.16 L 180 97.05 L 190 95.71 L 200 94.14 L 210 92.38 L 220 90.45 L 230 88.37 L 240 86.18 L 250 83.90 L 260 81.57 L 270 79.21 L 280 76.87 L 290 74.57 L 300 72.35 L 310 70.23 L 320 68.24 L 330 66.42 L 340 64.79 L 350 63.37 L 360 62.18 L 370 61.24 L 380 60.55 L 390 60.14 L 400 60.00 L 410 60.14 L 420 60.55 L 430 61.24 L 440 62.18 L 450 63.37 L 460 64.79 L 470 66.42 L 480 68.24 L 490 70.23 L 500 72.35 L 510 74.57 L 520 76.87 L 530 79.21 L 540 81.57 L 550 83.90 L 560 86.18 L 570 88.37 L 580 90.45 L 590 92.38 L 600 94.14 L 610 95.71 L 620 97.05 L 630 98.16 L 640 99.02 L 650 99.62 L 660 99.94 L 670 99.98 L 680 99.75 L 690 99.25 L 700 98.48 L 710 97.45 L 720 96.18 L 730 94.69 L 740 92.99 L 750 91.11 L 760 89.08 L 770 86.92 L 780 84.67 L 790 82.35 L 800 80.00 L 810 77.65 L 820 75.33 L 830 73.08 L 840 70.92 L 850 68.89 L 860 67.01 L 870 65.31 L 880 63.82 L 890 62.55 L 900 61.52 L 910 60.75 L 920 60.25 L 930 60.02 L 940 60.06 L 950 60.38 L 960 60.98 L 970 61.84 L 980 62.95 L 990 64.29 L 1000 65.86 L 1010 67.62 L 1020 69.55 L 1030 71.63 L 1040 73.82 L 1050 76.10 L 1060 78.43 L 1070 80.79 L 1080 83.13 L 1090 85.43 L 1100 87.65 L 1110 89.77 L 1120 91.76 L 1130 93.58 L 1140 95.21 L 1150 96.63 L 1160 97.82 L 1170 98.76 L 1180 99.45 L 1190 99.86 L 1200 100.00 L 1210 99.86 L 1220 99.45 L 1230 98.76 L 1240 97.82 L 1250 96.63 L 1260 95.21 L 1270 93.58 L 1280 91.76 L 1290 89.77 L 1300 87.65 L 1310 85.43 L 1320 83.13 L 1330 80.79 L 1340 78.43 L 1350 76.10 L 1360 73.82 L 1370 71.63 L 1380 69.55 L 1390 67.62 L 1400 65.86 L 1410 64.29 L 1420 62.95 L 1430 61.84 L 1440 60.98 L 1450 60.38 L 1460 60.06 L 1470 60.02 L 1480 60.25 L 1490 60.75 L 1500 61.52 L 1510 62.55 L 1520 63.82 L 1530 65.31 L 1540 67.01 L 1550 68.89 L 1560 70.92 L 1570 73.08 L 1580 75.33 L 1590 77.65 L 1600 80.00 L 1600 380 L 0 380 Z" fill="#EF4444" opacity="0.10"/><path d="M 0 113.99 L 10 113.76 L 20 113.18 L 30 112.28 L 40 111.08 L 50 109.61 L 60 107.89 L 70 105.99 L 80 103.94 L 90 101.79 L 100 99.59 L 110 97.41 L 120 95.29 L 130 93.28 L 140 91.44 L 150 89.82 L 160 88.44 L 170 87.35 L 180 86.56 L 190 86.11 L 200 86.01 L 210 86.24 L 220 86.82 L 230 87.72 L 240 88.92 L 250 90.39 L 260 92.11 L 270 94.01 L 280 96.06 L 290 98.21 L 300 100.41 L 310 102.59 L 320 104.71 L 330 106.72 L 340 108.56 L 350 110.18 L 360 111.56 L 370 112.65 L 380 113.44 L 390 113.89 L 400 113.99 L 410 113.76 L 420 113.18 L 430 112.28 L 440 111.08 L 450 109.61 L 460 107.89 L 470 105.99 L 480 103.94 L 490 101.79 L 500 99.59 L 510 97.41 L 520 95.29 L 530 93.28 L 540 91.44 L 550 89.82 L 560 88.44 L 570 87.35 L 580 86.56 L 590 86.11 L 600 86.01 L 610 86.24 L 620 86.82 L 630 87.72 L 640 88.92 L 650 90.39 L 660 92.11 L 670 94.01 L 680 96.06 L 690 98.21 L 700 100.41 L 710 102.59 L 720 104.71 L 730 106.72 L 740 108.56 L 750 110.18 L 760 111.56 L 770 112.65 L 780 113.44 L 790 113.89 L 800 113.99 L 810 113.76 L 820 113.18 L 830 112.28 L 840 111.08 L 850 109.61 L 860 107.89 L 870 105.99 L 880 103.94 L 890 101.79 L 900 99.59 L 910 97.41 L 920 95.29 L 930 93.28 L 940 91.44 L 950 89.82 L 960 88.44 L 970 87.35 L 980 86.56 L 990 86.11 L 1000 86.01 L 1010 86.24 L 1020 86.82 L 1030 87.72 L 1040 88.92 L 1050 90.39 L 1060 92.11 L 1070 94.01 L 1080 96.06 L 1090 98.21 L 1100 100.41 L 1110 102.59 L 1120 104.71 L 1130 106.72 L 1140 108.56 L 1150 110.18 L 1160 111.56 L 1170 112.65 L 1180 113.44 L 1190 113.89 L 1200 113.99 L 1210 113.76 L 1220 113.18 L 1230 112.28 L 1240 111.08 L 1250 109.61 L 1260 107.89 L 1270 105.99 L 1280 103.94 L 1290 101.79 L 1300 99.59 L 1310 97.41 L 1320 95.29 L 1330 93.28 L 1340 91.44 L 1350 89.82 L 1360 88.44 L 1370 87.35 L 1380 86.56 L 1390 86.11 L 1400 86.01 L 1410 86.24 L 1420 86.82 L 1430 87.72 L 1440 88.92 L 1450 90.39 L 1460 92.11 L 1470 94.01 L 1480 96.06 L 1490 98.21 L 1500 100.41 L 1510 102.59 L 1520 104.71 L 1530 106.72 L 1540 108.56 L 1550 110.18 L 1560 111.56 L 1570 112.65 L 1580 113.44 L 1590 113.89 L 1600 113.99 L 1600 380 L 0 380 Z" fill="#EF4444" opacity="0.06"/>
    <text x="110" y="140" font-family="system-ui, -apple-system, Segoe UI, Roboto, Helvetica, Arial, sans-serif"
          font-size="26" font-weight="700" fill="#111827">Your Company</text>
    <text x="110" y="174" font-family="system-ui, -apple-system, Segoe UI, Roboto, Helvetica, Arial, sans-serif"
          font-size="16" fill="#374151">123 Industrial Estate, City, Country</text>
    <text x="110" y="196" font-family="system-ui, -apple-system, Segoe UI, Roboto, Helvetica, Arial, sans-serif"
          font-size="16" fill="#374151">support@company.com · +91 98765 43210</text>
    <text x="110" y="228" font-family="system-ui, -apple-system, Segoe UI, Roboto, Helvetica, Arial, sans-serif"
          font-size="14" fill="#374151">© 2025 Your Company. All rights reserved.</text>
    <text x="820" y="120" font-size="16" font-weight="700" font-family="system-ui,-apple-system,Segoe UI,Roboto,Helvetica,Arial,sans-serif" fill="#374151">Explore</text><text x="820" y="142" font-size="14" font-family="system-ui,-apple-system,Segoe UI,Roboto,Helvetica,Arial,sans-serif" fill="#374151" opacity="0.85">Catalogue</text><text x="820" y="164" font-size="14" font-family="system-ui,-apple-system,Segoe UI,Roboto,Helvetica,Arial,sans-serif" fill="#374151" opacity="0.85">Pricing</text><text x="820" y="186" font-size="14" font-family="system-ui,-apple-system,Segoe UI,Roboto,Helvetica,Arial,sans-serif" fill="#374151" opacity="0.85">New Arrivals</text><text x="820" y="208" font-size="14" font-family="system-ui,-apple-system,Segoe UI,Roboto,Helvetica,Arial,sans-serif" fill="#374151" opacity="0.85">Bestsellers</text><text x="1040" y="120" font-size="16" font-weight="700" font-family="system-ui,-apple-system,Segoe UI,Roboto,Helvetica,Arial,sans-serif" fill="#374151">Company</text><text x="1040" y="142" font-size="14" font-family="system-ui,-apple-system,Segoe UI,Roboto,Helvetica,Arial,sans-serif" fill="#374151" opacity="0.85">Leadership</text><text x="1040" y="164" font-size="14" font-family="system-ui,-apple-system,Segoe UI,Roboto,Helvetica,Arial,sans-serif" fill="#374151" opacity="0.85">Newsroom</text><text x="1040" y="186" font-size="14" font-family="system-ui,-apple-system,Segoe UI,Roboto,Helvetica,Arial,sans-serif" fill="#374151" opacity="0.85">CSR</text><text x="1040" y="208" font-size="14" font-family="system-ui,-apple-system,Segoe UI,Roboto,Helvetica,Arial,sans-serif" fill="#374151" opacity="0.85">Events</text><text x="1260" y="120" font-size="16" font-weight="700" font-family="system-ui,-apple-system,Segoe UI,Roboto,Helvetica,Arial,sans-serif" fill="#374151">Help</text><text x="1260" y="142" font-size="14" font-family="system-ui,-apple-system,Segoe UI,Roboto,Helvetica,Arial,sans-serif" fill="#374151" opacity="0.85">FAQ</text><text x="1260" y="164" font-size="14" font-family="system-ui,-apple-system,Segoe UI,Roboto,Helvetica,Arial,sans-serif" fill="#374151" opacity="0.85">Email Us</text><text x="1260" y="186" font-size="14" font-family="system-ui,-apple-system,Segoe UI,Roboto,Helvetica,Arial,sans-serif" fill="#374151" opacity="0.85">Live Chat</text><text x="1260" y="208" font-size="14" font-family="system-ui,-apple-system,Segoe UI,Roboto,Helvetica,Arial,sans-serif" fill="#374151" opacity="0.85">Warranty</text><circle cx="124.0" cy="294.0" r="14.0" fill="none" stroke="#374151" stroke-width="2"/><text x="124.0" y="299.0" text-anchor="middle" font-family="system-ui, -apple-system, Segoe UI, Roboto, Helvetica, Arial, sans-serif" font-weight="700" font-size="14" fill="#374151">in</text><circle cx="170.0" cy="294.0" r="14.0" fill="none" stroke="#374151" stroke-width="2"/><text x="170.0" y="299.0" text-anchor="middle" font-family="system-ui, -apple-system, Segoe UI, Roboto, Helvetica, Arial, sans-serif" font-weight="700" font-size="14" fill="#374151">x</text><circle cx="216.0" cy="294.0" r="14.0" fill="none" stroke="#374151" stroke-width="2"/><text x="216.0" y="299.0" text-anchor="middle" font-family="system-ui, -apple-system, Segoe UI, Roboto, Helvetica, Arial, sans-serif" font-weight="700" font-size="14" fill="#374151">ig</text><circle cx="262.0" cy="294.0" r="14.0" fill="none" stroke="#374151" stroke-width="2"/><text x="262.0" y="299.0" text-anchor="middle" font-family="system-ui, -apple-system, Segoe UI, Roboto, Helvetica, Arial, sans-serif" font-weight="700" font-size="14" fill="#374151">fb</text></svg>