<svg xmlns="http://www.w3.org/2000/svg" width="1600" height="380" viewBox="0 0 1600 380" role="img" aria-label="Website footer design"><rect width="1600" height="380" fill="#111827"/><path d="M 0 100.21 L 10 99.02 L 20 97.77 L 30 96.47 L 40 95.13 L 50 93.76 L 60 92.37 L 70 90.96 L 80 89.55 L 90 88.14 L 100 86.74 L 110 85.36 L 120 84.01 L 130 82.70 L 140 81.43 L 150 80.21 L 160 79.06 L 170 77.97 L 180 76.96 L 190 76.02 L 200 75.18 L 210 74.42 L 220 73.76 L 230 73.20 L 240 72.75 L 250 72.40 L 260 72.16 L 270 72.03 L 280 72.01 L 290 72.10 L 300 72.30 L 310 72.61 L 320 73.03 L 330 73.55 L 340 74.17 L 350 74.89 L 360 75.71 L 370 76.61 L 380 77.60 L 390 78.66 L 400 79.79 L 410 80.98 L 420 82.23 L 430 83.53 L 440 84.87 L 450 86.24 L 460 87.63 L 470 89.04 L 480 90.45 L 490 91.86 L 500 93.26 L 510 94.64 L 520 95.99 L 530 97.30 L 540 98.57 L 550 99.79 L 560 100.94 L 570 102.03 L 580 103.04 L 590 103.98 L 600 104.82 L 610 105.58 L 620 106.24 L 630 106.80 L 640 107.25 L 650 107.60 L 660 107.84 L 670 107.97 L 680 107.99 L 690 107.90 L 700 107.70 L 710 107.39 L 720 106.97 L 730 106.45 L 740 105.83 L 750 105.11 L 760 104.29 L 770 103.39 L 780 102.40 L 790 101.34 L 800 100.21 L 810 99.02 L 820 97.77 L 830 96.47 L 840 95.13 L 850 93.76 L 860 92.37 L 870 90.96 L 880 89.55 L 890 88.14 L 900 86.74 L 910 85.36 L 920 84.01 L 930 82.70 L 940 81.43 L 950 80.21 L 960 79.06 L 970 77.97 L 980 76.96 L 990 76.02 L 1000 75.18 L 1010 74.42 L 1020 73.76 L 1030 73.20 L 1040 72.75 L 1050 72.40 L 1060 72.16 L 1070 72.03 L 1080 72.01 L 1090 72.10 L 1100 72.30 L 1110 72.61 L 1120 73.03 L 1130 73.55 L 1140 74.17 L 1150 74.89 L 1160 75.71 L 1170 76.61 L 1180 77.60 L 1190 78.66 L 1200 79.79 L 1210 80.98 L 1220 82.23 L 1230 83.53 L 1240 84.87 L 1250 86.24 L 1260 87.63 L 1270 89.04 L 1280 90.45 L 1290 91.86 L 1300 93.26 L 1310 94.64 L 1320 95.99 L 1330 97.30 L 1340 98.57 L 1350 99.79 L 1360 100.94 L 1370 102.03 L 1380 103.04 L 1390 103.98 L 1400 104.82 L 1410 105.58 L 1420 106.24 L 1430 106.80 L 1440 107.25 L 1450 107.60 L 1460 107.84 L 1470 107.97 L 1480 107.99 L 1490 107.90 L 1500 107.70 L 1510 107.39 L 1520 106.97 L 1530 106.45 L 1540 105.83 L 1550 105.11 L 1560 104.29 L 1570 103.39 L 1580 102.40 L 1590 101.34 L 1600 100.21 L 1600 380 L 0 380 Z" fill="#EF4444" opacity="0.15"/>
    <text x="80" y="150" font-family="system-ui, -apple-system, Segoe UI, Roboto, Helvetica, Arial, sans-serif"
          font-size="26" font-weight="700" fill="#FFFFFF">Your Company</text>
    <text x="80" y="184" font-family="system-ui, -apple-system, Segoe UI, Roboto, Helvetica, Arial, sans-serif"
          font-size="16" fill="#E5E7EB">123 Industrial Estate, City, Country</text>
    <text x="80" y="206" font-family="system-ui, -apple-system, Segoe UI, Roboto, Helvetica, Arial, sans-serif"
          font-size="16" fill="#E5E7EB">support@company.com · +91 98765 43210</text>
    <text x="80" y="238" font-family="system-ui, -apple-system, Segoe UI, Roboto, Helvetica, Arial, sans-serif"
          font-size="14" fill="#E5E7EB">© 2025 Your Company. All rights reserved.</text>
    <text x="720" y="130" font-size="16" font-weight="700" font-family="system-ui,-apple-system,Segoe UI,Roboto,Helvetica,Arial,sans-serif" fill="#E5E7EB">Products</text><text x="720" y="152" font-size="14" font-family="system-ui,-apple-system,Segoe UI,Roboto,Helvetica,Arial,sans-serif" fill="#E5E7EB" opacity="0.85">Steel Sheets</text><text x="720" y="174" font-size="14" font-family="system-ui,-apple-system,Segoe UI,Roboto,Helvetica,Arial,sans-serif" fill="#E5E7EB" opacity="0.85">Alloy Bars</text><text x="720" y="196" font-size="14" font-family="system-ui,-apple-system,Segoe UI,Roboto,Helvetica,Arial,sans-serif" fill="#E5E7EB" opacity="0.85">Pipes</text><text x="720" y="218" font-size="14" font-family="system-ui,-apple-system,Segoe UI,Roboto,Helvetica,Arial,sans-serif" fill="#E5E7EB" opacity="0.85">Profiles</text><text x="940" y="130" font-size="16" font-weight="700" font-family="system-ui,-apple-system,Segoe UI,Roboto,Helvetica,Arial,sans-serif" fill="#E5E7EB">Company</text><text x="940" y="152" font-size="14" font-family="system-ui,-apple-system,Segoe UI,Roboto,Helvetica,Arial,sans-serif" fill="#E5E7EB" opacity="0.85">About</text><text x="940" y="174" font-size="14" font-family="system-ui,-apple-system,Segoe UI,Roboto,Helvetica,Arial,sans-serif" fill="#E5E7EB" opacity="0.85">Careers</text><text x="940" y="196" font-size="14" font-family="system-ui,-apple-system,Segoe UI,Roboto,Helvetica,Arial,sans-serif" fill="#E5E7EB" opacity="0.85">Press</text><text x="940" y="218" font-size="14" font-family="system-ui,-apple-system,Segoe UI,Roboto,Helvetica,Arial,sans-serif" fill="#E5E7EB" opacity="0.85">Investors</text><text x="1160" y="130" font-size="16" font-weight="700" font-family="system-ui,-apple-system,Segoe UI,Roboto,Helvetica,Arial,sans-serif" fill="#E5E7EB">Support</text><text x="1160" y="152" font-size="14" font-family="system-ui,-apple-system,Segoe UI,Roboto,Helvetica,Arial,sans-serif" fill="#E5E7EB" opacity="0.85">Help Center</text><text x="1160" y="174" font-size="14" font-family="system-ui,-apple-system,Segoe UI,Roboto,Helvetica,Arial,sans-serif" fill="#E5E7EB" opacity="0.85">Contact</text><text x="1160" y="196" font-size="14" font-family="system-ui,-apple-system,Segoe UI,Roboto,Helvetica,Arial,sans-serif" fill="#E5E7EB" opacity="0.85">Privacy</text><text x="1160" y="218" font-size="14" font-family="system-ui,-apple-system,Segoe UI,Roboto,Helvetica,Arial,sans-serif" fill="#E5E7EB" opacity="0.85">Terms</text><circle cx="94.0" cy="294.0" r="14.0" fill="none" stroke="#E5E7EB" stroke-width="2"/><text x="94.0" y="299.0" text-anchor="middle" font-family="system-ui, -apple-system, Segoe UI, Roboto, Helvetica, Arial, sans-serif" font-weight="700" font-size="14" fill="#E5E7EB">in</text><circle cx="140.0" cy="294.0" r="14.0" fill="none" stroke="#E5E7EB" stroke-width="2"/><text x="140.0" y="299.0" text-anchor="middle" font-family="system-ui, -apple-system, Segoe UI, Roboto, Helvetica, Arial, sans-serif" font-weight="700" font-size="14" fill="#E5E7EB">x</text><circle cx="186.0" cy="294.0" r="14.0" fill="none" stroke="#E5E7EB" stroke-width="2"/><text x="186.0" y="299.0" text-anchor="middle" font-family="system-ui, -apple-system, Segoe UI, Roboto, Helvetica, Arial, sans-serif" font-weight="700" font-size="14" fill="#E5E7EB">ig</text><circle cx="232.0" cy="294.0" r="14.0" fill="none" stroke="#E5E7EB" stroke-width="2"/><text x="232.0" y="299.0" text-anchor="middle" font-family="system-ui, -apple-system, Segoe UI, Roboto, Helvetica, Arial, sans-serif" font-weight="700" font-size="14" fill="#E5E7EB">fb</text></svg>