<svg xmlns="http://www.w3.org/2000/svg" width="1600" height="380" viewBox="0 0 1600 380" role="img" aria-label="Website footer design"><rect width="1600" height="380" fill="#111827"/><path d="M 0 92.46 L 10 91.06 L 20 89.65 L 30 88.23 L 40 86.83 L 50 85.45 L 60 84.10 L 70 82.79 L 80 81.51 L 90 80.29 L 100 79.13 L 110 78.04 L 120 77.02 L 130 76.08 L 140 75.23 L 150 74.47 L 160 73.80 L 170 73.24 L 180 72.77 L 190 72.42 L 200 72.17 L 210 72.03 L 220 72.00 L 230 72.09 L 240 72.28 L 250 72.58 L 260 72.99 L 270 73.51 L 280 74.13 L 290 74.84 L 300 75.65 L 310 76.55 L 320 77.53 L 330 78.58 L 340 79.71 L 350 80.90 L 360 82.15 L 370 83.44 L 380 84.78 L 390 86.14 L 400 87.54 L 410 88.94 L 420 90.35 L 430 91.77 L 440 93.17 L 450 94.55 L 460 95.90 L 470 97.21 L 480 98.49 L 490 99.71 L 500 100.87 L 510 101.96 L 520 102.98 L 530 103.92 L 540 104.77 L 550 105.53 L 560 106.20 L 570 106.76 L 580 107.23 L 590 107.58 L 600 107.83 L 610 107.97 L 620 108.00 L 630 107.91 L 640 107.72 L 650 107.42 L 660 107.01 L 670 106.49 L 680 105.87 L 690 105.16 L 700 104.35 L 710 103.45 L 720 102.47 L 730 101.42 L 740 100.29 L 750 99.10 L 760 97.85 L 770 96.56 L 780 95.22 L 790 93.86 L 800 92.46 L 810 91.06 L 820 89.65 L 830 88.23 L 840 86.83 L 850 85.45 L 860 84.10 L 870 82.79 L 880 81.51 L 890 80.29 L 900 79.13 L 910 78.04 L 920 77.02 L 930 76.08 L 940 75.23 L 950 74.47 L 960 73.80 L 970 73.24 L 980 72.77 L 990 72.42 L 1000 72.17 L 1010 72.03 L 1020 72.00 L 1030 72.09 L 1040 72.28 L 1050 72.58 L 1060 72.99 L 1070 73.51 L 1080 74.13 L 1090 74.84 L 1100 75.65 L 1110 76.55 L 1120 77.53 L 1130 78.58 L 1140 79.71 L 1150 80.90 L 1160 82.15 L 1170 83.44 L 1180 84.78 L 1190 86.14 L 1200 87.54 L 1210 88.94 L 1220 90.35 L 1230 91.77 L 1240 93.17 L 1250 94.55 L 1260 95.90 L 1270 97.21 L 1280 98.49 L 1290 99.71 L 1300 100.87 L 1310 101.96 L 1320 102.98 L 1330 103.92 L 1340 104.77 L 1350 105.53 L 1360 106.20 L 1370 106.76 L 1380 107.23 L 1390 107.58 L 1400 107.83 L 1410 107.97 L 1420 108.00 L 1430 107.91 L 1440 107.72 L 1450 107.42 L 1460 107.01 L 1470 106.49 L 1480 105.87 L 1490 105.16 L 1500 104.35 L 1510 103.45 L 1520 102.47 L 1530 101.42 L 1540 100.29 L 1550 99.10 L 1560 97.85 L 1570 96.56 L 1580 95.22 L 1590 93.86 L 1600 92.46 L 1600 380 L 0 380 Z" fill="#F3F4F6" opacity="0.15"/>
    <text x="80" y="150" font-family="system-ui, -apple-system, Segoe UI, Roboto, Helvetica, Arial, sans-serif"
          font-size="26" font-weight="700" fill="#FFFFFF">Your Company</text>
    <text x="80" y="184" font-family="system-ui, -apple-system, Segoe UI, Roboto, Helvetica, Arial, sans-serif"
          font-size="16" fill="#E5E7EB">123 Industrial Estate, City, Country</text>
    <text x="80" y="206" font-family="system-ui, -apple-system, Segoe UI, Roboto, Helvetica, Arial, sans-serif"
          font-size="16" fill="#E5E7EB">support@company.com · +91 98765 43210</text>
    <text x="80" y="238" font-family="system-ui, -apple-system, Segoe UI, Roboto, Helvetica, Arial, sans-serif"
          font-size="14" fill="#E5E7EB">© 2025 Your Company. All rights reserved.</text>
    <text x="720" y="130" font-size="16" font-weight="700" font-family="system-ui,-apple-system,Segoe UI,Roboto,Helvetica,Arial,sans-serif" fill="#E5E7EB">Products</text><text x="720" y="152" font-size="14" font-family="system-ui,-apple-system,Segoe UI,Roboto,Helvetica,Arial,sans-serif" fill="#E5E7EB" opacity="0.85">Steel Sheets</text><text x="720" y="174" font-size="14" font-family="system-ui,-apple-system,Segoe UI,Roboto,Helvetica,Arial,sans-serif" fill="#E5E7EB" opacity="0.85">Alloy Bars</text><text x="720" y="196" font-size="14" font-family="system-ui,-apple-system,Segoe UI,Roboto,Helvetica,Arial,sans-serif" fill="#E5E7EB" opacity="0.85">Pipes</text><text x="720" y="218" font-size="14" font-family="system-ui,-apple-system,Segoe UI,Roboto,Helvetica,Arial,sans-serif" fill="#E5E7EB" opacity="0.85">Profiles</text><text x="940" y="130" font-size="16" font-weight="700" font-family="system-ui,-apple-system,Segoe UI,Roboto,Helvetica,Arial,sans-serif" fill="#E5E7EB">Company</text><text x="940" y="152" font-size="14" font-family="system-ui,-apple-system,Segoe UI,Roboto,Helvetica,Arial,sans-serif" fill="#E5E7EB" opacity="0.85">About</text><text x="940" y="174" font-size="14" font-family="system-ui,-apple-system,Segoe UI,Roboto,Helvetica,Arial,sans-serif" fill="#E5E7EB" opacity="0.85">Careers</text><text x="940" y="196" font-size="14" font-family="system-ui,-apple-system,Segoe UI,Roboto,Helvetica,Arial,sans-serif" fill="#E5E7EB" opacity="0.85">Press</text><text x="940" y="218" font-size="14" font-family="system-ui,-apple-system,Segoe UI,Roboto,Helvetica,Arial,sans-serif" fill="#E5E7EB" opacity="0.85">Investors</text><text x="1160" y="130" font-size="16" font-weight="700" font-family="system-ui,-apple-system,Segoe UI,Roboto,Helvetica,Arial,sans-serif" fill="#E5E7EB">Support</text><text x="1160" y="152" font-size="14" font-family="system-ui,-apple-system,Segoe UI,Roboto,Helvetica,Arial,sans-serif" fill="#E5E7EB" opacity="0.85">Help Center</text><text x="1160" y="174" font-size="14" font-family="system-ui,-apple-system,Segoe UI,Roboto,Helvetica,Arial,sans-serif" fill="#E5E7EB" opacity="0.85">Contact</text><text x="1160" y="196" font-size="14" font-family="system-ui,-apple-system,Segoe UI,Roboto,Helvetica,Arial,sans-serif" fill="#E5E7EB" opacity="0.85">Privacy</text><text x="1160" y="218" font-size="14" font-family="system-ui,-apple-system,Segoe UI,Roboto,Helvetica,Arial,sans-serif" fill="#E5E7EB" opacity="0.85">Terms</text><circle cx="94.0" cy="294.0" r="14.0" fill="none" stroke="#E5E7EB" stroke-width="2"/><text x="94.0" y="299.0" text-anchor="middle" font-family="system-ui, -apple-system, Segoe UI, Roboto, Helvetica, Arial, sans-serif" font-weight="700" font-size="14" fill="#E5E7EB">in</text><circle cx="140.0" cy="294.0" r="14.0" fill="none" stroke="#E5E7EB" stroke-width="2"/><text x="140.0" y="299.0" text-anchor="middle" font-family="system-ui, -apple-system, Segoe UI, Roboto, Helvetica, Arial, sans-serif" font-weight="700" font-size="14" fill="#E5E7EB">x</text><circle cx="186.0" cy="294.0" r="14.0" fill="none" stroke="#E5E7EB" stroke-width="2"/><text x="186.0" y="299.0" text-anchor="middle" font-family="system-ui, -apple-system, Segoe UI, Roboto, Helvetica, Arial, sans-serif" font-weight="700" font-size="14" fill="#E5E7EB">ig</text><circle cx="232.0" cy="294.0" r="14.0" fill="none" stroke="#E5E7EB" stroke-width="2"/><text x="232.0" y="299.0" text-anchor="middle" font-family="system-ui, -apple-system, Segoe UI, Roboto, Helvetica, Arial, sans-serif" font-weight="700" font-size="14" fill="#E5E7EB">fb</text></svg>