<svg xmlns="http://www.w3.org/2000/svg" width="1600" height="380" viewBox="0 0 1600 380" role="img" aria-label="Website footer design"><rect width="1600" height="380" fill="#374151"/><path d="M 0 90.39 L 10 88.98 L 20 87.57 L 30 86.18 L 40 84.81 L 50 83.48 L 60 82.18 L 70 80.93 L 80 79.74 L 90 78.61 L 100 77.55 L 110 76.57 L 120 75.67 L 130 74.86 L 140 74.14 L 150 73.53 L 160 73.01 L 170 72.59 L 180 72.29 L 190 72.09 L 200 72.00 L 210 72.03 L 220 72.16 L 230 72.41 L 240 72.76 L 250 73.22 L 260 73.79 L 270 74.45 L 280 75.21 L 290 76.06 L 300 77.00 L 310 78.01 L 320 79.10 L 330 80.26 L 340 81.48 L 350 82.75 L 360 84.06 L 370 85.42 L 380 86.80 L 390 88.19 L 400 89.61 L 410 91.02 L 420 92.43 L 430 93.82 L 440 95.19 L 450 96.52 L 460 97.82 L 470 99.07 L 480 100.26 L 490 101.39 L 500 102.45 L 510 103.43 L 520 104.33 L 530 105.14 L 540 105.86 L 550 106.47 L 560 106.99 L 570 107.41 L 580 107.71 L 590 107.91 L 600 108.00 L 610 107.97 L 620 107.84 L 630 107.59 L 640 107.24 L 650 106.78 L 660 106.21 L 670 105.55 L 680 104.79 L 690 103.94 L 700 103.00 L 710 101.99 L 720 100.90 L 730 99.74 L 740 98.52 L 750 97.25 L 760 95.94 L 770 94.58 L 780 93.20 L 790 91.81 L 800 90.39 L 810 88.98 L 820 87.57 L 830 86.18 L 840 84.81 L 850 83.48 L 860 82.18 L 870 80.93 L 880 79.74 L 890 78.61 L 900 77.55 L 910 76.57 L 920 75.67 L 930 74.86 L 940 74.14 L 950 73.53 L 960 73.01 L 970 72.59 L 980 72.29 L 990 72.09 L 1000 72.00 L 1010 72.03 L 1020 72.16 L 1030 72.41 L 1040 72.76 L 1050 73.22 L 1060 73.79 L 1070 74.45 L 1080 75.21 L 1090 76.06 L 1100 77.00 L 1110 78.01 L 1120 79.10 L 1130 80.26 L 1140 81.48 L 1150 82.75 L 1160 84.06 L 1170 85.42 L 1180 86.80 L 1190 88.19 L 1200 89.61 L 1210 91.02 L 1220 92.43 L 1230 93.82 L 1240 95.19 L 1250 96.52 L 1260 97.82 L 1270 99.07 L 1280 100.26 L 1290 101.39 L 1300 102.45 L 1310 103.43 L 1320 104.33 L 1330 105.14 L 1340 105.86 L 1350 106.47 L 1360 106.99 L 1370 107.41 L 1380 107.71 L 1390 107.91 L 1400 108.00 L 1410 107.97 L 1420 107.84 L 1430 107.59 L 1440 107.24 L 1450 106.78 L 1460 106.21 L 1470 105.55 L 1480 104.79 L 1490 103.94 L 1500 103.00 L 1510 101.99 L 1520 100.90 L 1530 99.74 L 1540 98.52 L 1550 97.25 L 1560 95.94 L 1570 94.58 L 1580 93.20 L 1590 91.81 L 1600 90.39 L 1600 380 L 0 380 Z" fill="#0EA5E9" opacity="0.15"/>
    <text x="80" y="150" font-family="system-ui, -apple-system, Segoe UI, Roboto, Helvetica, Arial, sans-serif"
          font-size="26" font-weight="700" fill="#FFFFFF">Your Company</text>
    <text x="80" y="184" font-family="system-ui, -apple-system, Segoe UI, Roboto, Helvetica, Arial, sans-serif"
          font-size="16" fill="#E5E7EB">123 Industrial Estate, City, Country</text>
    <text x="80" y="206" font-family="system-ui, -apple-system, Segoe UI, Roboto, Helvetica, Arial, sans-serif"
          font-size="16" fill="#E5E7EB">support@company.com · +91 98765 43210</text>
    <text x="80" y="238" font-family="system-ui, -apple-system, Segoe UI, Roboto, Helvetica, Arial, sans-serif"
          font-size="14" fill="#E5E7EB">© 2025 Your Company. All rights reserved.</text>
    <text x="720" y="130" font-size="16" font-weight="700" font-family="system-ui,-apple-system,Segoe UI,Roboto,Helvetica,Arial,sans-serif" fill="#E5E7EB">Products</text><text x="720" y="152" font-size="14" font-family="system-ui,-apple-system,Segoe UI,Roboto,Helvetica,Arial,sans-serif" fill="#E5E7EB" opacity="0.85">Steel Sheets</text><text x="720" y="174" font-size="14" font-family="system-ui,-apple-system,Segoe UI,Roboto,Helvetica,Arial,sans-serif" fill="#E5E7EB" opacity="0.85">Alloy Bars</text><text x="720" y="196" font-size="14" font-family="system-ui,-apple-system,Segoe UI,Roboto,Helvetica,Arial,sans-serif" fill="#E5E7EB" opacity="0.85">Pipes</text><text x="720" y="218" font-size="14" font-family="system-ui,-apple-system,Segoe UI,Roboto,Helvetica,Arial,sans-serif" fill="#E5E7EB" opacity="0.85">Profiles</text><text x="940" y="130" font-size="16" font-weight="700" font-family="system-ui,-apple-system,Segoe UI,Roboto,Helvetica,Arial,sans-serif" fill="#E5E7EB">Company</text><text x="940" y="152" font-size="14" font-family="system-ui,-apple-system,Segoe UI,Roboto,Helvetica,Arial,sans-serif" fill="#E5E7EB" opacity="0.85">About</text><text x="940" y="174" font-size="14" font-family="system-ui,-apple-system,Segoe UI,Roboto,Helvetica,Arial,sans-serif" fill="#E5E7EB" opacity="0.85">Careers</text><text x="940" y="196" font-size="14" font-family="system-ui,-apple-system,Segoe UI,Roboto,Helvetica,Arial,sans-serif" fill="#E5E7EB" opacity="0.85">Press</text><text x="940" y="218" font-size="14" font-family="system-ui,-apple-system,Segoe UI,Roboto,Helvetica,Arial,sans-serif" fill="#E5E7EB" opacity="0.85">Investors</text><text x="1160" y="130" font-size="16" font-weight="700" font-family="system-ui,-apple-system,Segoe UI,Roboto,Helvetica,Arial,sans-serif" fill="#E5E7EB">Support</text><text x="1160" y="152" font-size="14" font-family="system-ui,-apple-system,Segoe UI,Roboto,Helvetica,Arial,sans-serif" fill="#E5E7EB" opacity="0.85">Help Center</text><text x="1160" y="174" font-size="14" font-family="system-ui,-apple-system,Segoe UI,Roboto,Helvetica,Arial,sans-serif" fill="#E5E7EB" opacity="0.85">Contact</text><text x="1160" y="196" font-size="14" font-family="system-ui,-apple-system,Segoe UI,Roboto,Helvetica,Arial,sans-serif" fill="#E5E7EB" opacity="0.85">Privacy</text><text x="1160" y="218" font-size="14" font-family="system-ui,-apple-system,Segoe UI,Roboto,Helvetica,Arial,sans-serif" fill="#E5E7EB" opacity="0.85">Terms</text><circle cx="94.0" cy="294.0" r="14.0" fill="none" stroke="#E5E7EB" stroke-width="2"/><text x="94.0" y="299.0" text-anchor="middle" font-family="system-ui, -apple-system, Segoe UI, Roboto, Helvetica, Arial, sans-serif" font-weight="700" font-size="14" fill="#E5E7EB">in</text><circle cx="140.0" cy="294.0" r="14.0" fill="none" stroke="#E5E7EB" stroke-width="2"/><text x="140.0" y="299.0" text-anchor="middle" font-family="system-ui, -apple-system, Segoe UI, Roboto, Helvetica, Arial, sans-serif" font-weight="700" font-size="14" fill="#E5E7EB">x</text><circle cx="186.0" cy="294.0" r="14.0" fill="none" stroke="#E5E7EB" stroke-width="2"/><text x="186.0" y="299.0" text-anchor="middle" font-family="system-ui, -apple-system, Segoe UI, Roboto, Helvetica, Arial, sans-serif" font-weight="700" font-size="14" fill="#E5E7EB">ig</text><circle cx="232.0" cy="294.0" r="14.0" fill="none" stroke="#E5E7EB" stroke-width="2"/><text x="232.0" y="299.0" text-anchor="middle" font-family="system-ui, -apple-system, Segoe UI, Roboto, Helvetica, Arial, sans-serif" font-weight="700" font-size="14" fill="#E5E7EB">fb</text></svg>