<svg xmlns="http://www.w3.org/2000/svg" width="1600" height="380" viewBox="0 0 1600 380" role="img" aria-label="Website footer design"><rect width="1600" height="380" fill="#E5E7EB"/><path d="M 0 95.05 L 10 96.39 L 20 97.69 L 30 98.94 L 40 100.14 L 50 101.28 L 60 102.34 L 70 103.33 L 80 104.24 L 90 105.06 L 100 105.79 L 110 106.42 L 120 106.95 L 130 107.37 L 140 107.69 L 150 107.89 L 160 107.99 L 170 107.98 L 180 107.85 L 190 107.62 L 200 107.28 L 210 106.83 L 220 106.28 L 230 105.62 L 240 104.87 L 250 104.03 L 260 103.10 L 270 102.09 L 280 101.01 L 290 99.86 L 300 98.65 L 310 97.38 L 320 96.07 L 330 94.72 L 340 93.35 L 350 91.95 L 360 90.54 L 370 89.12 L 380 87.72 L 390 86.32 L 400 84.95 L 410 83.61 L 420 82.31 L 430 81.06 L 440 79.86 L 450 78.72 L 460 77.66 L 470 76.67 L 480 75.76 L 490 74.94 L 500 74.21 L 510 73.58 L 520 73.05 L 530 72.63 L 540 72.31 L 550 72.11 L 560 72.01 L 570 72.02 L 580 72.15 L 590 72.38 L 600 72.72 L 610 73.17 L 620 73.72 L 630 74.38 L 640 75.13 L 650 75.97 L 660 76.90 L 670 77.91 L 680 78.99 L 690 80.14 L 700 81.35 L 710 82.62 L 720 83.93 L 730 85.28 L 740 86.65 L 750 88.05 L 760 89.46 L 770 90.88 L 780 92.28 L 790 93.68 L 800 95.05 L 810 96.39 L 820 97.69 L 830 98.94 L 840 100.14 L 850 101.28 L 860 102.34 L 870 103.33 L 880 104.24 L 890 105.06 L 900 105.79 L 910 106.42 L 920 106.95 L 930 107.37 L 940 107.69 L 950 107.89 L 960 107.99 L 970 107.98 L 980 107.85 L 990 107.62 L 1000 107.28 L 1010 106.83 L 1020 106.28 L 1030 105.62 L 1040 104.87 L 1050 104.03 L 1060 103.10 L 1070 102.09 L 1080 101.01 L 1090 99.86 L 1100 98.65 L 1110 97.38 L 1120 96.07 L 1130 94.72 L 1140 93.35 L 1150 91.95 L 1160 90.54 L 1170 89.12 L 1180 87.72 L 1190 86.32 L 1200 84.95 L 1210 83.61 L 1220 82.31 L 1230 81.06 L 1240 79.86 L 1250 78.72 L 1260 77.66 L 1270 76.67 L 1280 75.76 L 1290 74.94 L 1300 74.21 L 1310 73.58 L 1320 73.05 L 1330 72.63 L 1340 72.31 L 1350 72.11 L 1360 72.01 L 1370 72.02 L 1380 72.15 L 1390 72.38 L 1400 72.72 L 1410 73.17 L 1420 73.72 L 1430 74.38 L 1440 75.13 L 1450 75.97 L 1460 76.90 L 1470 77.91 L 1480 78.99 L 1490 80.14 L 1500 81.35 L 1510 82.62 L 1520 83.93 L 1530 85.28 L 1540 86.65 L 1550 88.05 L 1560 89.46 L 1570 90.88 L 1580 92.28 L 1590 93.68 L 1600 95.05 L 1600 380 L 0 380 Z" fill="#0EA5E9" opacity="0.15"/>
    <text x="80" y="150" font-family="system-ui, -apple-system, Segoe UI, Roboto, Helvetica, Arial, sans-serif"
          font-size="26" font-weight="700" fill="#111827">Your Company</text>
    <text x="80" y="184" font-family="system-ui, -apple-system, Segoe UI, Roboto, Helvetica, Arial, sans-serif"
          font-size="16" fill="#374151">123 Industrial Estate, City, Country</text>
    <text x="80" y="206" font-family="system-ui, -apple-system, Segoe UI, Roboto, Helvetica, Arial, sans-serif"
          font-size="16" fill="#374151">support@company.com · +91 98765 43210</text>
    <text x="80" y="238" font-family="system-ui, -apple-system, Segoe UI, Roboto, Helvetica, Arial, sans-serif"
          font-size="14" fill="#374151">© 2025 Your Company. All rights reserved.</text>
    <text x="720" y="130" font-size="16" font-weight="700" font-family="system-ui,-apple-system,Segoe UI,Roboto,Helvetica,Arial,sans-serif" fill="#374151">Products</text><text x="720" y="152" font-size="14" font-family="system-ui,-apple-system,Segoe UI,Roboto,Helvetica,Arial,sans-serif" fill="#374151" opacity="0.85">Steel Sheets</text><text x="720" y="174" font-size="14" font-family="system-ui,-apple-system,Segoe UI,Roboto,Helvetica,Arial,sans-serif" fill="#374151" opacity="0.85">Alloy Bars</text><text x="720" y="196" font-size="14" font-family="system-ui,-apple-system,Segoe UI,Roboto,Helvetica,Arial,sans-serif" fill="#374151" opacity="0.85">Pipes</text><text x="720" y="218" font-size="14" font-family="system-ui,-apple-system,Segoe UI,Roboto,Helvetica,Arial,sans-serif" fill="#374151" opacity="0.85">Profiles</text><text x="940" y="130" font-size="16" font-weight="700" font-family="system-ui,-apple-system,Segoe UI,Roboto,Helvetica,Arial,sans-serif" fill="#374151">Company</text><text x="940" y="152" font-size="14" font-family="system-ui,-apple-system,Segoe UI,Roboto,Helvetica,Arial,sans-serif" fill="#374151" opacity="0.85">About</text><text x="940" y="174" font-size="14" font-family="system-ui,-apple-system,Segoe UI,Roboto,Helvetica,Arial,sans-serif" fill="#374151" opacity="0.85">Careers</text><text x="940" y="196" font-size="14" font-family="system-ui,-apple-system,Segoe UI,Roboto,Helvetica,Arial,sans-serif" fill="#374151" opacity="0.85">Press</text><text x="940" y="218" font-size="14" font-family="system-ui,-apple-system,Segoe UI,Roboto,Helvetica,Arial,sans-serif" fill="#374151" opacity="0.85">Investors</text><text x="1160" y="130" font-size="16" font-weight="700" font-family="system-ui,-apple-system,Segoe UI,Roboto,Helvetica,Arial,sans-serif" fill="#374151">Support</text><text x="1160" y="152" font-size="14" font-family="system-ui,-apple-system,Segoe UI,Roboto,Helvetica,Arial,sans-serif" fill="#374151" opacity="0.85">Help Center</text><text x="1160" y="174" font-size="14" font-family="system-ui,-apple-system,Segoe UI,Roboto,Helvetica,Arial,sans-serif" fill="#374151" opacity="0.85">Contact</text><text x="1160" y="196" font-size="14" font-family="system-ui,-apple-system,Segoe UI,Roboto,Helvetica,Arial,sans-serif" fill="#374151" opacity="0.85">Privacy</text><text x="1160" y="218" font-size="14" font-family="system-ui,-apple-system,Segoe UI,Roboto,Helvetica,Arial,sans-serif" fill="#374151" opacity="0.85">Terms</text><circle cx="94.0" cy="294.0" r="14.0" fill="none" stroke="#374151" stroke-width="2"/><text x="94.0" y="299.0" text-anchor="middle" font-family="system-ui, -apple-system, Segoe UI, Roboto, Helvetica, Arial, sans-serif" font-weight="700" font-size="14" fill="#374151">in</text><circle cx="140.0" cy="294.0" r="14.0" fill="none" stroke="#374151" stroke-width="2"/><text x="140.0" y="299.0" text-anchor="middle" font-family="system-ui, -apple-system, Segoe UI, Roboto, Helvetica, Arial, sans-serif" font-weight="700" font-size="14" fill="#374151">x</text><circle cx="186.0" cy="294.0" r="14.0" fill="none" stroke="#374151" stroke-width="2"/><text x="186.0" y="299.0" text-anchor="middle" font-family="system-ui, -apple-system, Segoe UI, Roboto, Helvetica, Arial, sans-serif" font-weight="700" font-size="14" fill="#374151">ig</text><circle cx="232.0" cy="294.0" r="14.0" fill="none" stroke="#374151" stroke-width="2"/><text x="232.0" y="299.0" text-anchor="middle" font-family="system-ui, -apple-system, Segoe UI, Roboto, Helvetica, Arial, sans-serif" font-weight="700" font-size="14" fill="#374151">fb</text><rect x="1320" y="300" rx="12" ry="12" width="200" height="44" fill="#0EA5E9" opacity="0.85"/><text x="1420" y="330" font-size="16" font-family="system-ui,-apple-system,Segoe UI,Roboto,Helvetica,Arial,sans-serif" text-anchor="middle" font-weight="700" fill="#0B0F19">Request a Quote</text></svg>