<svg xmlns="http://www.w3.org/2000/svg" width="1600" height="380" viewBox="0 0 1600 380" role="img" aria-label="Website footer design"><rect width="1600" height="380" fill="#E5E7EB"/><rect x="0" y="0" width="1600" height="6" fill="#0EA5E9" opacity="0.5"/><circle cx="60" cy="80" r="1.6" fill="#374151" opacity="0.18"/><circle cx="84" cy="80" r="1.6" fill="#374151" opacity="0.18"/><circle cx="108" cy="80" r="1.6" fill="#374151" opacity="0.18"/><circle cx="132" cy="80" r="1.6" fill="#374151" opacity="0.18"/><circle cx="156" cy="80" r="1.6" fill="#374151" opacity="0.18"/><circle cx="180" cy="80" r="1.6" fill="#374151" opacity="0.18"/><circle cx="204" cy="80" r="1.6" fill="#374151" opacity="0.18"/><circle cx="228" cy="80" r="1.6" fill="#374151" opacity="0.18"/><circle cx="252" cy="80" r="1.6" fill="#374151" opacity="0.18"/><circle cx="276" cy="80" r="1.6" fill="#374151" opacity="0.18"/><circle cx="300" cy="80" r="1.6" fill="#374151" opacity="0.18"/><circle cx="324" cy="80" r="1.6" fill="#374151" opacity="0.18"/><circle cx="348" cy="80" r="1.6" fill="#374151" opacity="0.18"/><circle cx="372" cy="80" r="1.6" fill="#374151" opacity="0.18"/><circle cx="396" cy="80" r="1.6" fill="#374151" opacity="0.18"/><circle cx="420" cy="80" r="1.6" fill="#374151" opacity="0.18"/><circle cx="444" cy="80" r="1.6" fill="#374151" opacity="0.18"/><circle cx="468" cy="80" r="1.6" fill="#374151" opacity="0.18"/><circle cx="492" cy="80" r="1.6" fill="#374151" opacity="0.18"/><circle cx="516" cy="80" r="1.6" fill="#374151" opacity="0.18"/><circle cx="540" cy="80" r="1.6" fill="#374151" opacity="0.18"/><circle cx="564" cy="80" r="1.6" fill="#374151" opacity="0.18"/><circle cx="588" cy="80" r="1.6" fill="#374151" opacity="0.18"/><circle cx="612" cy="80" r="1.6" fill="#374151" opacity="0.18"/><circle cx="636" cy="80" r="1.6" fill="#374151" opacity="0.18"/><circle cx="660" cy="80" r="1.6" fill="#374151" opacity="0.18"/><circle cx="684" cy="80" r="1.6" fill="#374151" opacity="0.18"/><circle cx="708" cy="80" r="1.6" fill="#374151" opacity="0.18"/><circle cx="732" cy="80" r="1.6" fill="#374151" opacity="0.18"/><circle cx="756" cy="80" r="1.6" fill="#374151" opacity="0.18"/><circle cx="780" cy="80" r="1.6" fill="#374151" opacity="0.18"/><circle cx="804" cy="80" r="1.6" fill="#374151" opacity="0.18"/><circle cx="828" cy="80" r="1.6" fill="#374151" opacity="0.18"/><circle cx="852" cy="80" r="1.6" fill="#374151" opacity="0.18"/><circle cx="876" cy="80" r="1.6" fill="#374151" opacity="0.18"/><circle cx="900" cy="80" r="1.6" fill="#374151" opacity="0.18"/><circle cx="924" cy="80" r="1.6" fill="#374151" opacity="0.18"/><circle cx="948" cy="80" r="1.6" fill="#374151" opacity="0.18"/><circle cx="972" cy="80" r="1.6" fill="#374151" opacity="0.18"/><circle cx="996" cy="80" r="1.6" fill="#374151" opacity="0.18"/><circle cx="1020" cy="80" r="1.6" fill="#374151" opacity="0.18"/><circle cx="1044" cy="80" r="1.6" fill="#374151" opacity="0.18"/><circle cx="1068" cy="80" r="1.6" fill="#374151" opacity="0.18"/><circle cx="1092" cy="80" r="1.6" fill="#374151" opacity="0.18"/><circle cx="1116" cy="80" r="1.6" fill="#374151" opacity="0.18"/><circle cx="1140" cy="80" r="1.6" fill="#374151" opacity="0.18"/><circle cx="1164" cy="80" r="1.6" fill="#374151" opacity="0.18"/><circle cx="1188" cy="80" r="1.6" fill="#374151" opacity="0.18"/><circle cx="1212" cy="80" r="1.6" fill="#374151" opacity="0.18"/><circle cx="1236" cy="80" r="1.6" fill="#374151" opacity="0.18"/><circle cx="1260" cy="80" r="1.6" fill="#374151" opacity="0.18"/><circle cx="1284" cy="80" r="1.6" fill="#374151" opacity="0.18"/><circle cx="1308" cy="80" r="1.6" fill="#374151" opacity="0.18"/><circle cx="1332" cy="80" r="1.6" fill="#374151" opacity="0.18"/><circle cx="1356" cy="80" r="1.6" fill="#374151" opacity="0.18"/><circle cx="1380" cy="80" r="1.6" fill="#374151" opacity="0.18"/><circle cx="1404" cy="80" r="1.6" fill="#374151" opacity="0.18"/><circle cx="1428" cy="80" r="1.6" fill="#374151" opacity="0.18"/><circle cx="1452" cy="80" r="1.6" fill="#374151" opacity="0.18"/><circle cx="1476" cy="80" r="1.6" fill="#374151" opacity="0.18"/><circle cx="1500" cy="80" r="1.6" fill="#374151" opacity="0.18"/><circle cx="1524" cy="80" r="1.6" fill="#374151" opacity="0.18"/><circle cx="60" cy="104" r="1.6" fill="#374151" opacity="0.18"/><circle cx="84" cy="104" r="1.6" fill="#374151" opacity="0.18"/><circle cx="108" cy="104" r="1.6" fill="#374151" opacity="0.18"/><circle cx="132" cy="104" r="1.6" fill="#374151" opacity="0.18"/><circle cx="156" cy="104" r="1.6" fill="#374151" opacity="0.18"/><circle cx="180" cy="104" r="1.6" fill="#374151" opacity="0.18"/><circle cx="204" cy="104" r="1.6" fill="#374151" opacity="0.18"/><circle cx="228" cy="104" r="1.6" fill="#374151" opacity="0.18"/><circle cx="252" cy="104" r="1.6" fill="#374151" opacity="0.18"/><circle cx="276" cy="104" r="1.6" fill="#374151" opacity="0.18"/><circle cx="300" cy="104" r="1.6" fill="#374151" opacity="0.18"/><circle cx="324" cy="104" r="1.6" fill="#374151" opacity="0.18"/><circle cx="348" cy="104" r="1.6" fill="#374151" opacity="0.18"/><circle cx="372" cy="104" r="1.6" fill="#374151" opacity="0.18"/><circle cx="396" cy="104" r="1.6" fill="#374151" opacity="0.18"/><circle cx="420" cy="104" r="1.6" fill="#374151" opacity="0.18"/><circle cx="444" cy="104" r="1.6" fill="#374151" opacity="0.18"/><circle cx="468" cy="104" r="1.6" fill="#374151" opacity="0.18"/><circle cx="492" cy="104" r="1.6" fill="#374151" opacity="0.18"/><circle cx="516" cy="104" r="1.6" fill="#374151" opacity="0.18"/><circle cx="540" cy="104" r="1.6" fill="#374151" opacity="0.18"/><circle cx="564" cy="104" r="1.6" fill="#374151" opacity="0.18"/><circle cx="588" cy="104" r="1.6" fill="#374151" opacity="0.18"/><circle cx="612" cy="104" r="1.6" fill="#374151" opacity="0.18"/><circle cx="636" cy="104" r="1.6" fill="#374151" opacity="0.18"/><circle cx="660" cy="104" r="1.6" fill="#374151" opacity="0.18"/><circle cx="684" cy="104" r="1.6" fill="#374151" opacity="0.18"/><circle cx="708" cy="104" r="1.6" fill="#374151" opacity="0.18"/><circle cx="732" cy="104" r="1.6" fill="#374151" opacity="0.18"/><circle cx="756" cy="104" r="1.6" fill="#374151" opacity="0.18"/><circle cx="780" cy="104" r="1.6" fill="#374151" opacity="0.18"/><circle cx="804" cy="104" r="1.6" fill="#374151" opacity="0.18"/><circle cx="828" cy="104" r="1.6" fill="#374151" opacity="0.18"/><circle cx="852" cy="104" r="1.6" fill="#374151" opacity="0.18"/><circle cx="876" cy="104" r="1.6" fill="#374151" opacity="0.18"/><circle cx="900" cy="104" r="1.6" fill="#374151" opacity="0.18"/><circle cx="924" cy="104" r="1.6" fill="#374151" opacity="0.18"/><circle cx="948" cy="104" r="1.6" fill="#374151" opacity="0.18"/><circle cx="972" cy="104" r="1.6" fill="#374151" opacity="0.18"/><circle cx="996" cy="104" r="1.6" fill="#374151" opacity="0.18"/><circle cx="1020" cy="104" r="1.6" fill="#374151" opacity="0.18"/><circle cx="1044" cy="104" r="1.6" fill="#374151" opacity="0.18"/><circle cx="1068" cy="104" r="1.6" fill="#374151" opacity="0.18"/><circle cx="1092" cy="104" r="1.6" fill="#374151" opacity="0.18"/><circle cx="1116" cy="104" r="1.6" fill="#374151" opacity="0.18"/><circle cx="1140" cy="104" r="1.6" fill="#374151" opacity="0.18"/><circle cx="1164" cy="104" r="1.6" fill="#374151" opacity="0.18"/><circle cx="1188" cy="104" r="1.6" fill="#374151" opacity="0.18"/><circle cx="1212" cy="104" r="1.6" fill="#374151" opacity="0.18"/><circle cx="1236" cy="104" r="1.6" fill="#374151" opacity="0.18"/><circle cx="1260" cy="104" r="1.6" fill="#374151" opacity="0.18"/><circle cx="1284" cy="104" r="1.6" fill="#374151" opacity="0.18"/><circle cx="1308" cy="104" r="1.6" fill="#374151" opacity="0.18"/><circle cx="1332" cy="104" r="1.6" fill="#374151" opacity="0.18"/><circle cx="1356" cy="104" r="1.6" fill="#374151" opacity="0.18"/><circle cx="1380" cy="104" r="1.6" fill="#374151" opacity="0.18"/><circle cx="1404" cy="104" r="1.6" fill="#374151" opacity="0.18"/><circle cx="1428" cy="104" r="1.6" fill="#374151" opacity="0.18"/><circle cx="1452" cy="104" r="1.6" fill="#374151" opacity="0.18"/><circle cx="1476" cy="104" r="1.6" fill="#374151" opacity="0.18"/><circle cx="1500" cy="104" r="1.6" fill="#374151" opacity="0.18"/><circle cx="1524" cy="104" r="1.6" fill="#374151" opacity="0.18"/><circle cx="60" cy="128" r="1.6" fill="#374151" opacity="0.18"/><circle cx="84" cy="128" r="1.6" fill="#374151" opacity="0.18"/><circle cx="108" cy="128" r="1.6" fill="#374151" opacity="0.18"/><circle cx="132" cy="128" r="1.6" fill="#374151" opacity="0.18"/><circle cx="156" cy="128" r="1.6" fill="#374151" opacity="0.18"/><circle cx="180" cy="128" r="1.6" fill="#374151" opacity="0.18"/><circle cx="204" cy="128" r="1.6" fill="#374151" opacity="0.18"/><circle cx="228" cy="128" r="1.6" fill="#374151" opacity="0.18"/><circle cx="252" cy="128" r="1.6" fill="#374151" opacity="0.18"/><circle cx="276" cy="128" r="1.6" fill="#374151" opacity="0.18"/><circle cx="300" cy="128" r="1.6" fill="#374151" opacity="0.18"/><circle cx="324" cy="128" r="1.6" fill="#374151" opacity="0.18"/><circle cx="348" cy="128" r="1.6" fill="#374151" opacity="0.18"/><circle cx="372" cy="128" r="1.6" fill="#374151" opacity="0.18"/><circle cx="396" cy="128" r="1.6" fill="#374151" opacity="0.18"/><circle cx="420" cy="128" r="1.6" fill="#374151" opacity="0.18"/><circle cx="444" cy="128" r="1.6" fill="#374151" opacity="0.18"/><circle cx="468" cy="128" r="1.6" fill="#374151" opacity="0.18"/><circle cx="492" cy="128" r="1.6" fill="#374151" opacity="0.18"/><circle cx="516" cy="128" r="1.6" fill="#374151" opacity="0.18"/><circle cx="540" cy="128" r="1.6" fill="#374151" opacity="0.18"/><circle cx="564" cy="128" r="1.6" fill="#374151" opacity="0.18"/><circle cx="588" cy="128" r="1.6" fill="#374151" opacity="0.18"/><circle cx="612" cy="128" r="1.6" fill="#374151" opacity="0.18"/><circle cx="636" cy="128" r="1.6" fill="#374151" opacity="0.18"/><circle cx="660" cy="128" r="1.6" fill="#374151" opacity="0.18"/><circle cx="684" cy="128" r="1.6" fill="#374151" opacity="0.18"/><circle cx="708" cy="128" r="1.6" fill="#374151" opacity="0.18"/><circle cx="732" cy="128" r="1.6" fill="#374151" opacity="0.18"/><circle cx="756" cy="128" r="1.6" fill="#374151" opacity="0.18"/><circle cx="780" cy="128" r="1.6" fill="#374151" opacity="0.18"/><circle cx="804" cy="128" r="1.6" fill="#374151" opacity="0.18"/><circle cx="828" cy="128" r="1.6" fill="#374151" opacity="0.18"/><circle cx="852" cy="128" r="1.6" fill="#374151" opacity="0.18"/><circle cx="876" cy="128" r="1.6" fill="#374151" opacity="0.18"/><circle cx="900" cy="128" r="1.6" fill="#374151" opacity="0.18"/><circle cx="924" cy="128" r="1.6" fill="#374151" opacity="0.18"/><circle cx="948" cy="128" r="1.6" fill="#374151" opacity="0.18"/><circle cx="972" cy="128" r="1.6" fill="#374151" opacity="0.18"/><circle cx="996" cy="128" r="1.6" fill="#374151" opacity="0.18"/><circle cx="1020" cy="128" r="1.6" fill="#374151" opacity="0.18"/><circle cx="1044" cy="128" r="1.6" fill="#374151" opacity="0.18"/><circle cx="1068" cy="128" r="1.6" fill="#374151" opacity="0.18"/><circle cx="1092" cy="128" r="1.6" fill="#374151" opacity="0.18"/><circle cx="1116" cy="128" r="1.6" fill="#374151" opacity="0.18"/><circle cx="1140" cy="128" r="1.6" fill="#374151" opacity="0.18"/><circle cx="1164" cy="128" r="1.6" fill="#374151" opacity="0.18"/><circle cx="1188" cy="128" r="1.6" fill="#374151" opacity="0.18"/><circle cx="1212" cy="128" r="1.6" fill="#374151" opacity="0.18"/><circle cx="1236" cy="128" r="1.6" fill="#374151" opacity="0.18"/><circle cx="1260" cy="128" r="1.6" fill="#374151" opacity="0.18"/><circle cx="1284" cy="128" r="1.6" fill="#374151" opacity="0.18"/><circle cx="1308" cy="128" r="1.6" fill="#374151" opacity="0.18"/><circle cx="1332" cy="128" r="1.6" fill="#374151" opacity="0.18"/><circle cx="1356" cy="128" r="1.6" fill="#374151" opacity="0.18"/><circle cx="1380" cy="128" r="1.6" fill="#374151" opacity="0.18"/><circle cx="1404" cy="128" r="1.6" fill="#374151" opacity="0.18"/><circle cx="1428" cy="128" r="1.6" fill="#374151" opacity="0.18"/><circle cx="1452" cy="128" r="1.6" fill="#374151" opacity="0.18"/><circle cx="1476" cy="128" r="1.6" fill="#374151" opacity="0.18"/><circle cx="1500" cy="128" r="1.6" fill="#374151" opacity="0.18"/><circle cx="1524" cy="128" r="1.6" fill="#374151" opacity="0.18"/><circle cx="60" cy="152" r="1.6" fill="#374151" opacity="0.18"/><circle cx="84" cy="152" r="1.6" fill="#374151" opacity="0.18"/><circle cx="108" cy="152" r="1.6" fill="#374151" opacity="0.18"/><circle cx="132" cy="152" r="1.6" fill="#374151" opacity="0.18"/><circle cx="156" cy="152" r="1.6" fill="#374151" opacity="0.18"/><circle cx="180" cy="152" r="1.6" fill="#374151" opacity="0.18"/><circle cx="204" cy="152" r="1.6" fill="#374151" opacity="0.18"/><circle cx="228" cy="152" r="1.6" fill="#374151" opacity="0.18"/><circle cx="252" cy="152" r="1.6" fill="#374151" opacity="0.18"/><circle cx="276" cy="152" r="1.6" fill="#374151" opacity="0.18"/><circle cx="300" cy="152" r="1.6" fill="#374151" opacity="0.18"/><circle cx="324" cy="152" r="1.6" fill="#374151" opacity="0.18"/><circle cx="348" cy="152" r="1.6" fill="#374151" opacity="0.18"/><circle cx="372" cy="152" r="1.6" fill="#374151" opacity="0.18"/><circle cx="396" cy="152" r="1.6" fill="#374151" opacity="0.18"/><circle cx="420" cy="152" r="1.6" fill="#374151" opacity="0.18"/><circle cx="444" cy="152" r="1.6" fill="#374151" opacity="0.18"/><circle cx="468" cy="152" r="1.6" fill="#374151" opacity="0.18"/><circle cx="492" cy="152" r="1.6" fill="#374151" opacity="0.18"/><circle cx="516" cy="152" r="1.6" fill="#374151" opacity="0.18"/><circle cx="540" cy="152" r="1.6" fill="#374151" opacity="0.18"/><circle cx="564" cy="152" r="1.6" fill="#374151" opacity="0.18"/><circle cx="588" cy="152" r="1.6" fill="#374151" opacity="0.18"/><circle cx="612" cy="152" r="1.6" fill="#374151" opacity="0.18"/><circle cx="636" cy="152" r="1.6" fill="#374151" opacity="0.18"/><circle cx="660" cy="152" r="1.6" fill="#374151" opacity="0.18"/><circle cx="684" cy="152" r="1.6" fill="#374151" opacity="0.18"/><circle cx="708" cy="152" r="1.6" fill="#374151" opacity="0.18"/><circle cx="732" cy="152" r="1.6" fill="#374151" opacity="0.18"/><circle cx="756" cy="152" r="1.6" fill="#374151" opacity="0.18"/><circle cx="780" cy="152" r="1.6" fill="#374151" opacity="0.18"/><circle cx="804" cy="152" r="1.6" fill="#374151" opacity="0.18"/><circle cx="828" cy="152" r="1.6" fill="#374151" opacity="0.18"/><circle cx="852" cy="152" r="1.6" fill="#374151" opacity="0.18"/><circle cx="876" cy="152" r="1.6" fill="#374151" opacity="0.18"/><circle cx="900" cy="152" r="1.6" fill="#374151" opacity="0.18"/><circle cx="924" cy="152" r="1.6" fill="#374151" opacity="0.18"/><circle cx="948" cy="152" r="1.6" fill="#374151" opacity="0.18"/><circle cx="972" cy="152" r="1.6" fill="#374151" opacity="0.18"/><circle cx="996" cy="152" r="1.6" fill="#374151" opacity="0.18"/><circle cx="1020" cy="152" r="1.6" fill="#374151" opacity="0.18"/><circle cx="1044" cy="152" r="1.6" fill="#374151" opacity="0.18"/><circle cx="1068" cy="152" r="1.6" fill="#374151" opacity="0.18"/><circle cx="1092" cy="152" r="1.6" fill="#374151" opacity="0.18"/><circle cx="1116" cy="152" r="1.6" fill="#374151" opacity="0.18"/><circle cx="1140" cy="152" r="1.6" fill="#374151" opacity="0.18"/><circle cx="1164" cy="152" r="1.6" fill="#374151" opacity="0.18"/><circle cx="1188" cy="152" r="1.6" fill="#374151" opacity="0.18"/><circle cx="1212" cy="152" r="1.6" fill="#374151" opacity="0.18"/><circle cx="1236" cy="152" r="1.6" fill="#374151" opacity="0.18"/><circle cx="1260" cy="152" r="1.6" fill="#374151" opacity="0.18"/><circle cx="1284" cy="152" r="1.6" fill="#374151" opacity="0.18"/><circle cx="1308" cy="152" r="1.6" fill="#374151" opacity="0.18"/><circle cx="1332" cy="152" r="1.6" fill="#374151" opacity="0.18"/><circle cx="1356" cy="152" r="1.6" fill="#374151" opacity="0.18"/><circle cx="1380" cy="152" r="1.6" fill="#374151" opacity="0.18"/><circle cx="1404" cy="152" r="1.6" fill="#374151" opacity="0.18"/><circle cx="1428" cy="152" r="1.6" fill="#374151" opacity="0.18"/><circle cx="1452" cy="152" r="1.6" fill="#374151" opacity="0.18"/><circle cx="1476" cy="152" r="1.6" fill="#374151" opacity="0.18"/><circle cx="1500" cy="152" r="1.6" fill="#374151" opacity="0.18"/><circle cx="1524" cy="152" r="1.6" fill="#374151" opacity="0.18"/><circle cx="60" cy="176" r="1.6" fill="#374151" opacity="0.18"/><circle cx="84" cy="176" r="1.6" fill="#374151" opacity="0.18"/><circle cx="108" cy="176" r="1.6" fill="#374151" opacity="0.18"/><circle cx="132" cy="176" r="1.6" fill="#374151" opacity="0.18"/><circle cx="156" cy="176" r="1.6" fill="#374151" opacity="0.18"/><circle cx="180" cy="176" r="1.6" fill="#374151" opacity="0.18"/><circle cx="204" cy="176" r="1.6" fill="#374151" opacity="0.18"/><circle cx="228" cy="176" r="1.6" fill="#374151" opacity="0.18"/><circle cx="252" cy="176" r="1.6" fill="#374151" opacity="0.18"/><circle cx="276" cy="176" r="1.6" fill="#374151" opacity="0.18"/><circle cx="300" cy="176" r="1.6" fill="#374151" opacity="0.18"/><circle cx="324" cy="176" r="1.6" fill="#374151" opacity="0.18"/><circle cx="348" cy="176" r="1.6" fill="#374151" opacity="0.18"/><circle cx="372" cy="176" r="1.6" fill="#374151" opacity="0.18"/><circle cx="396" cy="176" r="1.6" fill="#374151" opacity="0.18"/><circle cx="420" cy="176" r="1.6" fill="#374151" opacity="0.18"/><circle cx="444" cy="176" r="1.6" fill="#374151" opacity="0.18"/><circle cx="468" cy="176" r="1.6" fill="#374151" opacity="0.18"/><circle cx="492" cy="176" r="1.6" fill="#374151" opacity="0.18"/><circle cx="516" cy="176" r="1.6" fill="#374151" opacity="0.18"/><circle cx="540" cy="176" r="1.6" fill="#374151" opacity="0.18"/><circle cx="564" cy="176" r="1.6" fill="#374151" opacity="0.18"/><circle cx="588" cy="176" r="1.6" fill="#374151" opacity="0.18"/><circle cx="612" cy="176" r="1.6" fill="#374151" opacity="0.18"/><circle cx="636" cy="176" r="1.6" fill="#374151" opacity="0.18"/><circle cx="660" cy="176" r="1.6" fill="#374151" opacity="0.18"/><circle cx="684" cy="176" r="1.6" fill="#374151" opacity="0.18"/><circle cx="708" cy="176" r="1.6" fill="#374151" opacity="0.18"/><circle cx="732" cy="176" r="1.6" fill="#374151" opacity="0.18"/><circle cx="756" cy="176" r="1.6" fill="#374151" opacity="0.18"/><circle cx="780" cy="176" r="1.6" fill="#374151" opacity="0.18"/><circle cx="804" cy="176" r="1.6" fill="#374151" opacity="0.18"/><circle cx="828" cy="176" r="1.6" fill="#374151" opacity="0.18"/><circle cx="852" cy="176" r="1.6" fill="#374151" opacity="0.18"/><circle cx="876" cy="176" r="1.6" fill="#374151" opacity="0.18"/><circle cx="900" cy="176" r="1.6" fill="#374151" opacity="0.18"/><circle cx="924" cy="176" r="1.6" fill="#374151" opacity="0.18"/><circle cx="948" cy="176" r="1.6" fill="#374151" opacity="0.18"/><circle cx="972" cy="176" r="1.6" fill="#374151" opacity="0.18"/><circle cx="996" cy="176" r="1.6" fill="#374151" opacity="0.18"/><circle cx="1020" cy="176" r="1.6" fill="#374151" opacity="0.18"/><circle cx="1044" cy="176" r="1.6" fill="#374151" opacity="0.18"/><circle cx="1068" cy="176" r="1.6" fill="#374151" opacity="0.18"/><circle cx="1092" cy="176" r="1.6" fill="#374151" opacity="0.18"/><circle cx="1116" cy="176" r="1.6" fill="#374151" opacity="0.18"/><circle cx="1140" cy="176" r="1.6" fill="#374151" opacity="0.18"/><circle cx="1164" cy="176" r="1.6" fill="#374151" opacity="0.18"/><circle cx="1188" cy="176" r="1.6" fill="#374151" opacity="0.18"/><circle cx="1212" cy="176" r="1.6" fill="#374151" opacity="0.18"/><circle cx="1236" cy="176" r="1.6" fill="#374151" opacity="0.18"/><circle cx="1260" cy="176" r="1.6" fill="#374151" opacity="0.18"/><circle cx="1284" cy="176" r="1.6" fill="#374151" opacity="0.18"/><circle cx="1308" cy="176" r="1.6" fill="#374151" opacity="0.18"/><circle cx="1332" cy="176" r="1.6" fill="#374151" opacity="0.18"/><circle cx="1356" cy="176" r="1.6" fill="#374151" opacity="0.18"/><circle cx="1380" cy="176" r="1.6" fill="#374151" opacity="0.18"/><circle cx="1404" cy="176" r="1.6" fill="#374151" opacity="0.18"/><circle cx="1428" cy="176" r="1.6" fill="#374151" opacity="0.18"/><circle cx="1452" cy="176" r="1.6" fill="#374151" opacity="0.18"/><circle cx="1476" cy="176" r="1.6" fill="#374151" opacity="0.18"/><circle cx="1500" cy="176" r="1.6" fill="#374151" opacity="0.18"/><circle cx="1524" cy="176" r="1.6" fill="#374151" opacity="0.18"/><circle cx="60" cy="200" r="1.6" fill="#374151" opacity="0.18"/><circle cx="84" cy="200" r="1.6" fill="#374151" opacity="0.18"/><circle cx="108" cy="200" r="1.6" fill="#374151" opacity="0.18"/><circle cx="132" cy="200" r="1.6" fill="#374151" opacity="0.18"/><circle cx="156" cy="200" r="1.6" fill="#374151" opacity="0.18"/><circle cx="180" cy="200" r="1.6" fill="#374151" opacity="0.18"/><circle cx="204" cy="200" r="1.6" fill="#374151" opacity="0.18"/><circle cx="228" cy="200" r="1.6" fill="#374151" opacity="0.18"/><circle cx="252" cy="200" r="1.6" fill="#374151" opacity="0.18"/><circle cx="276" cy="200" r="1.6" fill="#374151" opacity="0.18"/><circle cx="300" cy="200" r="1.6" fill="#374151" opacity="0.18"/><circle cx="324" cy="200" r="1.6" fill="#374151" opacity="0.18"/><circle cx="348" cy="200" r="1.6" fill="#374151" opacity="0.18"/><circle cx="372" cy="200" r="1.6" fill="#374151" opacity="0.18"/><circle cx="396" cy="200" r="1.6" fill="#374151" opacity="0.18"/><circle cx="420" cy="200" r="1.6" fill="#374151" opacity="0.18"/><circle cx="444" cy="200" r="1.6" fill="#374151" opacity="0.18"/><circle cx="468" cy="200" r="1.6" fill="#374151" opacity="0.18"/><circle cx="492" cy="200" r="1.6" fill="#374151" opacity="0.18"/><circle cx="516" cy="200" r="1.6" fill="#374151" opacity="0.18"/><circle cx="540" cy="200" r="1.6" fill="#374151" opacity="0.18"/><circle cx="564" cy="200" r="1.6" fill="#374151" opacity="0.18"/><circle cx="588" cy="200" r="1.6" fill="#374151" opacity="0.18"/><circle cx="612" cy="200" r="1.6" fill="#374151" opacity="0.18"/><circle cx="636" cy="200" r="1.6" fill="#374151" opacity="0.18"/><circle cx="660" cy="200" r="1.6" fill="#374151" opacity="0.18"/><circle cx="684" cy="200" r="1.6" fill="#374151" opacity="0.18"/><circle cx="708" cy="200" r="1.6" fill="#374151" opacity="0.18"/><circle cx="732" cy="200" r="1.6" fill="#374151" opacity="0.18"/><circle cx="756" cy="200" r="1.6" fill="#374151" opacity="0.18"/><circle cx="780" cy="200" r="1.6" fill="#374151" opacity="0.18"/><circle cx="804" cy="200" r="1.6" fill="#374151" opacity="0.18"/><circle cx="828" cy="200" r="1.6" fill="#374151" opacity="0.18"/><circle cx="852" cy="200" r="1.6" fill="#374151" opacity="0.18"/><circle cx="876" cy="200" r="1.6" fill="#374151" opacity="0.18"/><circle cx="900" cy="200" r="1.6" fill="#374151" opacity="0.18"/><circle cx="924" cy="200" r="1.6" fill="#374151" opacity="0.18"/><circle cx="948" cy="200" r="1.6" fill="#374151" opacity="0.18"/><circle cx="972" cy="200" r="1.6" fill="#374151" opacity="0.18"/><circle cx="996" cy="200" r="1.6" fill="#374151" opacity="0.18"/><circle cx="1020" cy="200" r="1.6" fill="#374151" opacity="0.18"/><circle cx="1044" cy="200" r="1.6" fill="#374151" opacity="0.18"/><circle cx="1068" cy="200" r="1.6" fill="#374151" opacity="0.18"/><circle cx="1092" cy="200" r="1.6" fill="#374151" opacity="0.18"/><circle cx="1116" cy="200" r="1.6" fill="#374151" opacity="0.18"/><circle cx="1140" cy="200" r="1.6" fill="#374151" opacity="0.18"/><circle cx="1164" cy="200" r="1.6" fill="#374151" opacity="0.18"/><circle cx="1188" cy="200" r="1.6" fill="#374151" opacity="0.18"/><circle cx="1212" cy="200" r="1.6" fill="#374151" opacity="0.18"/><circle cx="1236" cy="200" r="1.6" fill="#374151" opacity="0.18"/><circle cx="1260" cy="200" r="1.6" fill="#374151" opacity="0.18"/><circle cx="1284" cy="200" r="1.6" fill="#374151" opacity="0.18"/><circle cx="1308" cy="200" r="1.6" fill="#374151" opacity="0.18"/><circle cx="1332" cy="200" r="1.6" fill="#374151" opacity="0.18"/><circle cx="1356" cy="200" r="1.6" fill="#374151" opacity="0.18"/><circle cx="1380" cy="200" r="1.6" fill="#374151" opacity="0.18"/><circle cx="1404" cy="200" r="1.6" fill="#374151" opacity="0.18"/><circle cx="1428" cy="200" r="1.6" fill="#374151" opacity="0.18"/><circle cx="1452" cy="200" r="1.6" fill="#374151" opacity="0.18"/><circle cx="1476" cy="200" r="1.6" fill="#374151" opacity="0.18"/><circle cx="1500" cy="200" r="1.6" fill="#374151" opacity="0.18"/><circle cx="1524" cy="200" r="1.6" fill="#374151" opacity="0.18"/><circle cx="60" cy="224" r="1.6" fill="#374151" opacity="0.18"/><circle cx="84" cy="224" r="1.6" fill="#374151" opacity="0.18"/><circle cx="108" cy="224" r="1.6" fill="#374151" opacity="0.18"/><circle cx="132" cy="224" r="1.6" fill="#374151" opacity="0.18"/><circle cx="156" cy="224" r="1.6" fill="#374151" opacity="0.18"/><circle cx="180" cy="224" r="1.6" fill="#374151" opacity="0.18"/><circle cx="204" cy="224" r="1.6" fill="#374151" opacity="0.18"/><circle cx="228" cy="224" r="1.6" fill="#374151" opacity="0.18"/><circle cx="252" cy="224" r="1.6" fill="#374151" opacity="0.18"/><circle cx="276" cy="224" r="1.6" fill="#374151" opacity="0.18"/><circle cx="300" cy="224" r="1.6" fill="#374151" opacity="0.18"/><circle cx="324" cy="224" r="1.6" fill="#374151" opacity="0.18"/><circle cx="348" cy="224" r="1.6" fill="#374151" opacity="0.18"/><circle cx="372" cy="224" r="1.6" fill="#374151" opacity="0.18"/><circle cx="396" cy="224" r="1.6" fill="#374151" opacity="0.18"/><circle cx="420" cy="224" r="1.6" fill="#374151" opacity="0.18"/><circle cx="444" cy="224" r="1.6" fill="#374151" opacity="0.18"/><circle cx="468" cy="224" r="1.6" fill="#374151" opacity="0.18"/><circle cx="492" cy="224" r="1.6" fill="#374151" opacity="0.18"/><circle cx="516" cy="224" r="1.6" fill="#374151" opacity="0.18"/><circle cx="540" cy="224" r="1.6" fill="#374151" opacity="0.18"/><circle cx="564" cy="224" r="1.6" fill="#374151" opacity="0.18"/><circle cx="588" cy="224" r="1.6" fill="#374151" opacity="0.18"/><circle cx="612" cy="224" r="1.6" fill="#374151" opacity="0.18"/><circle cx="636" cy="224" r="1.6" fill="#374151" opacity="0.18"/><circle cx="660" cy="224" r="1.6" fill="#374151" opacity="0.18"/><circle cx="684" cy="224" r="1.6" fill="#374151" opacity="0.18"/><circle cx="708" cy="224" r="1.6" fill="#374151" opacity="0.18"/><circle cx="732" cy="224" r="1.6" fill="#374151" opacity="0.18"/><circle cx="756" cy="224" r="1.6" fill="#374151" opacity="0.18"/><circle cx="780" cy="224" r="1.6" fill="#374151" opacity="0.18"/><circle cx="804" cy="224" r="1.6" fill="#374151" opacity="0.18"/><circle cx="828" cy="224" r="1.6" fill="#374151" opacity="0.18"/><circle cx="852" cy="224" r="1.6" fill="#374151" opacity="0.18"/><circle cx="876" cy="224" r="1.6" fill="#374151" opacity="0.18"/><circle cx="900" cy="224" r="1.6" fill="#374151" opacity="0.18"/><circle cx="924" cy="224" r="1.6" fill="#374151" opacity="0.18"/><circle cx="948" cy="224" r="1.6" fill="#374151" opacity="0.18"/><circle cx="972" cy="224" r="1.6" fill="#374151" opacity="0.18"/><circle cx="996" cy="224" r="1.6" fill="#374151" opacity="0.18"/><circle cx="1020" cy="224" r="1.6" fill="#374151" opacity="0.18"/><circle cx="1044" cy="224" r="1.6" fill="#374151" opacity="0.18"/><circle cx="1068" cy="224" r="1.6" fill="#374151" opacity="0.18"/><circle cx="1092" cy="224" r="1.6" fill="#374151" opacity="0.18"/><circle cx="1116" cy="224" r="1.6" fill="#374151" opacity="0.18"/><circle cx="1140" cy="224" r="1.6" fill="#374151" opacity="0.18"/><circle cx="1164" cy="224" r="1.6" fill="#374151" opacity="0.18"/><circle cx="1188" cy="224" r="1.6" fill="#374151" opacity="0.18"/><circle cx="1212" cy="224" r="1.6" fill="#374151" opacity="0.18"/><circle cx="1236" cy="224" r="1.6" fill="#374151" opacity="0.18"/><circle cx="1260" cy="224" r="1.6" fill="#374151" opacity="0.18"/><circle cx="1284" cy="224" r="1.6" fill="#374151" opacity="0.18"/><circle cx="1308" cy="224" r="1.6" fill="#374151" opacity="0.18"/><circle cx="1332" cy="224" r="1.6" fill="#374151" opacity="0.18"/><circle cx="1356" cy="224" r="1.6" fill="#374151" opacity="0.18"/><circle cx="1380" cy="224" r="1.6" fill="#374151" opacity="0.18"/><circle cx="1404" cy="224" r="1.6" fill="#374151" opacity="0.18"/><circle cx="1428" cy="224" r="1.6" fill="#374151" opacity="0.18"/><circle cx="1452" cy="224" r="1.6" fill="#374151" opacity="0.18"/><circle cx="1476" cy="224" r="1.6" fill="#374151" opacity="0.18"/><circle cx="1500" cy="224" r="1.6" fill="#374151" opacity="0.18"/><circle cx="1524" cy="224" r="1.6" fill="#374151" opacity="0.18"/><circle cx="60" cy="248" r="1.6" fill="#374151" opacity="0.18"/><circle cx="84" cy="248" r="1.6" fill="#374151" opacity="0.18"/><circle cx="108" cy="248" r="1.6" fill="#374151" opacity="0.18"/><circle cx="132" cy="248" r="1.6" fill="#374151" opacity="0.18"/><circle cx="156" cy="248" r="1.6" fill="#374151" opacity="0.18"/><circle cx="180" cy="248" r="1.6" fill="#374151" opacity="0.18"/><circle cx="204" cy="248" r="1.6" fill="#374151" opacity="0.18"/><circle cx="228" cy="248" r="1.6" fill="#374151" opacity="0.18"/><circle cx="252" cy="248" r="1.6" fill="#374151" opacity="0.18"/><circle cx="276" cy="248" r="1.6" fill="#374151" opacity="0.18"/><circle cx="300" cy="248" r="1.6" fill="#374151" opacity="0.18"/><circle cx="324" cy="248" r="1.6" fill="#374151" opacity="0.18"/><circle cx="348" cy="248" r="1.6" fill="#374151" opacity="0.18"/><circle cx="372" cy="248" r="1.6" fill="#374151" opacity="0.18"/><circle cx="396" cy="248" r="1.6" fill="#374151" opacity="0.18"/><circle cx="420" cy="248" r="1.6" fill="#374151" opacity="0.18"/><circle cx="444" cy="248" r="1.6" fill="#374151" opacity="0.18"/><circle cx="468" cy="248" r="1.6" fill="#374151" opacity="0.18"/><circle cx="492" cy="248" r="1.6" fill="#374151" opacity="0.18"/><circle cx="516" cy="248" r="1.6" fill="#374151" opacity="0.18"/><circle cx="540" cy="248" r="1.6" fill="#374151" opacity="0.18"/><circle cx="564" cy="248" r="1.6" fill="#374151" opacity="0.18"/><circle cx="588" cy="248" r="1.6" fill="#374151" opacity="0.18"/><circle cx="612" cy="248" r="1.6" fill="#374151" opacity="0.18"/><circle cx="636" cy="248" r="1.6" fill="#374151" opacity="0.18"/><circle cx="660" cy="248" r="1.6" fill="#374151" opacity="0.18"/><circle cx="684" cy="248" r="1.6" fill="#374151" opacity="0.18"/><circle cx="708" cy="248" r="1.6" fill="#374151" opacity="0.18"/><circle cx="732" cy="248" r="1.6" fill="#374151" opacity="0.18"/><circle cx="756" cy="248" r="1.6" fill="#374151" opacity="0.18"/><circle cx="780" cy="248" r="1.6" fill="#374151" opacity="0.18"/><circle cx="804" cy="248" r="1.6" fill="#374151" opacity="0.18"/><circle cx="828" cy="248" r="1.6" fill="#374151" opacity="0.18"/><circle cx="852" cy="248" r="1.6" fill="#374151" opacity="0.18"/><circle cx="876" cy="248" r="1.6" fill="#374151" opacity="0.18"/><circle cx="900" cy="248" r="1.6" fill="#374151" opacity="0.18"/><circle cx="924" cy="248" r="1.6" fill="#374151" opacity="0.18"/><circle cx="948" cy="248" r="1.6" fill="#374151" opacity="0.18"/><circle cx="972" cy="248" r="1.6" fill="#374151" opacity="0.18"/><circle cx="996" cy="248" r="1.6" fill="#374151" opacity="0.18"/><circle cx="1020" cy="248" r="1.6" fill="#374151" opacity="0.18"/><circle cx="1044" cy="248" r="1.6" fill="#374151" opacity="0.18"/><circle cx="1068" cy="248" r="1.6" fill="#374151" opacity="0.18"/><circle cx="1092" cy="248" r="1.6" fill="#374151" opacity="0.18"/><circle cx="1116" cy="248" r="1.6" fill="#374151" opacity="0.18"/><circle cx="1140" cy="248" r="1.6" fill="#374151" opacity="0.18"/><circle cx="1164" cy="248" r="1.6" fill="#374151" opacity="0.18"/><circle cx="1188" cy="248" r="1.6" fill="#374151" opacity="0.18"/><circle cx="1212" cy="248" r="1.6" fill="#374151" opacity="0.18"/><circle cx="1236" cy="248" r="1.6" fill="#374151" opacity="0.18"/><circle cx="1260" cy="248" r="1.6" fill="#374151" opacity="0.18"/><circle cx="1284" cy="248" r="1.6" fill="#374151" opacity="0.18"/><circle cx="1308" cy="248" r="1.6" fill="#374151" opacity="0.18"/><circle cx="1332" cy="248" r="1.6" fill="#374151" opacity="0.18"/><circle cx="1356" cy="248" r="1.6" fill="#374151" opacity="0.18"/><circle cx="1380" cy="248" r="1.6" fill="#374151" opacity="0.18"/><circle cx="1404" cy="248" r="1.6" fill="#374151" opacity="0.18"/><circle cx="1428" cy="248" r="1.6" fill="#374151" opacity="0.18"/><circle cx="1452" cy="248" r="1.6" fill="#374151" opacity="0.18"/><circle cx="1476" cy="248" r="1.6" fill="#374151" opacity="0.18"/><circle cx="1500" cy="248" r="1.6" fill="#374151" opacity="0.18"/><circle cx="1524" cy="248" r="1.6" fill="#374151" opacity="0.18"/><circle cx="60" cy="272" r="1.6" fill="#374151" opacity="0.18"/><circle cx="84" cy="272" r="1.6" fill="#374151" opacity="0.18"/><circle cx="108" cy="272" r="1.6" fill="#374151" opacity="0.18"/><circle cx="132" cy="272" r="1.6" fill="#374151" opacity="0.18"/><circle cx="156" cy="272" r="1.6" fill="#374151" opacity="0.18"/><circle cx="180" cy="272" r="1.6" fill="#374151" opacity="0.18"/><circle cx="204" cy="272" r="1.6" fill="#374151" opacity="0.18"/><circle cx="228" cy="272" r="1.6" fill="#374151" opacity="0.18"/><circle cx="252" cy="272" r="1.6" fill="#374151" opacity="0.18"/><circle cx="276" cy="272" r="1.6" fill="#374151" opacity="0.18"/><circle cx="300" cy="272" r="1.6" fill="#374151" opacity="0.18"/><circle cx="324" cy="272" r="1.6" fill="#374151" opacity="0.18"/><circle cx="348" cy="272" r="1.6" fill="#374151" opacity="0.18"/><circle cx="372" cy="272" r="1.6" fill="#374151" opacity="0.18"/><circle cx="396" cy="272" r="1.6" fill="#374151" opacity="0.18"/><circle cx="420" cy="272" r="1.6" fill="#374151" opacity="0.18"/><circle cx="444" cy="272" r="1.6" fill="#374151" opacity="0.18"/><circle cx="468" cy="272" r="1.6" fill="#374151" opacity="0.18"/><circle cx="492" cy="272" r="1.6" fill="#374151" opacity="0.18"/><circle cx="516" cy="272" r="1.6" fill="#374151" opacity="0.18"/><circle cx="540" cy="272" r="1.6" fill="#374151" opacity="0.18"/><circle cx="564" cy="272" r="1.6" fill="#374151" opacity="0.18"/><circle cx="588" cy="272" r="1.6" fill="#374151" opacity="0.18"/><circle cx="612" cy="272" r="1.6" fill="#374151" opacity="0.18"/><circle cx="636" cy="272" r="1.6" fill="#374151" opacity="0.18"/><circle cx="660" cy="272" r="1.6" fill="#374151" opacity="0.18"/><circle cx="684" cy="272" r="1.6" fill="#374151" opacity="0.18"/><circle cx="708" cy="272" r="1.6" fill="#374151" opacity="0.18"/><circle cx="732" cy="272" r="1.6" fill="#374151" opacity="0.18"/><circle cx="756" cy="272" r="1.6" fill="#374151" opacity="0.18"/><circle cx="780" cy="272" r="1.6" fill="#374151" opacity="0.18"/><circle cx="804" cy="272" r="1.6" fill="#374151" opacity="0.18"/><circle cx="828" cy="272" r="1.6" fill="#374151" opacity="0.18"/><circle cx="852" cy="272" r="1.6" fill="#374151" opacity="0.18"/><circle cx="876" cy="272" r="1.6" fill="#374151" opacity="0.18"/><circle cx="900" cy="272" r="1.6" fill="#374151" opacity="0.18"/><circle cx="924" cy="272" r="1.6" fill="#374151" opacity="0.18"/><circle cx="948" cy="272" r="1.6" fill="#374151" opacity="0.18"/><circle cx="972" cy="272" r="1.6" fill="#374151" opacity="0.18"/><circle cx="996" cy="272" r="1.6" fill="#374151" opacity="0.18"/><circle cx="1020" cy="272" r="1.6" fill="#374151" opacity="0.18"/><circle cx="1044" cy="272" r="1.6" fill="#374151" opacity="0.18"/><circle cx="1068" cy="272" r="1.6" fill="#374151" opacity="0.18"/><circle cx="1092" cy="272" r="1.6" fill="#374151" opacity="0.18"/><circle cx="1116" cy="272" r="1.6" fill="#374151" opacity="0.18"/><circle cx="1140" cy="272" r="1.6" fill="#374151" opacity="0.18"/><circle cx="1164" cy="272" r="1.6" fill="#374151" opacity="0.18"/><circle cx="1188" cy="272" r="1.6" fill="#374151" opacity="0.18"/><circle cx="1212" cy="272" r="1.6" fill="#374151" opacity="0.18"/><circle cx="1236" cy="272" r="1.6" fill="#374151" opacity="0.18"/><circle cx="1260" cy="272" r="1.6" fill="#374151" opacity="0.18"/><circle cx="1284" cy="272" r="1.6" fill="#374151" opacity="0.18"/><circle cx="1308" cy="272" r="1.6" fill="#374151" opacity="0.18"/><circle cx="1332" cy="272" r="1.6" fill="#374151" opacity="0.18"/><circle cx="1356" cy="272" r="1.6" fill="#374151" opacity="0.18"/><circle cx="1380" cy="272" r="1.6" fill="#374151" opacity="0.18"/><circle cx="1404" cy="272" r="1.6" fill="#374151" opacity="0.18"/><circle cx="1428" cy="272" r="1.6" fill="#374151" opacity="0.18"/><circle cx="1452" cy="272" r="1.6" fill="#374151" opacity="0.18"/><circle cx="1476" cy="272" r="1.6" fill="#374151" opacity="0.18"/><circle cx="1500" cy="272" r="1.6" fill="#374151" opacity="0.18"/><circle cx="1524" cy="272" r="1.6" fill="#374151" opacity="0.18"/><circle cx="60" cy="296" r="1.6" fill="#374151" opacity="0.18"/><circle cx="84" cy="296" r="1.6" fill="#374151" opacity="0.18"/><circle cx="108" cy="296" r="1.6" fill="#374151" opacity="0.18"/><circle cx="132" cy="296" r="1.6" fill="#374151" opacity="0.18"/><circle cx="156" cy="296" r="1.6" fill="#374151" opacity="0.18"/><circle cx="180" cy="296" r="1.6" fill="#374151" opacity="0.18"/><circle cx="204" cy="296" r="1.6" fill="#374151" opacity="0.18"/><circle cx="228" cy="296" r="1.6" fill="#374151" opacity="0.18"/><circle cx="252" cy="296" r="1.6" fill="#374151" opacity="0.18"/><circle cx="276" cy="296" r="1.6" fill="#374151" opacity="0.18"/><circle cx="300" cy="296" r="1.6" fill="#374151" opacity="0.18"/><circle cx="324" cy="296" r="1.6" fill="#374151" opacity="0.18"/><circle cx="348" cy="296" r="1.6" fill="#374151" opacity="0.18"/><circle cx="372" cy="296" r="1.6" fill="#374151" opacity="0.18"/><circle cx="396" cy="296" r="1.6" fill="#374151" opacity="0.18"/><circle cx="420" cy="296" r="1.6" fill="#374151" opacity="0.18"/><circle cx="444" cy="296" r="1.6" fill="#374151" opacity="0.18"/><circle cx="468" cy="296" r="1.6" fill="#374151" opacity="0.18"/><circle cx="492" cy="296" r="1.6" fill="#374151" opacity="0.18"/><circle cx="516" cy="296" r="1.6" fill="#374151" opacity="0.18"/><circle cx="540" cy="296" r="1.6" fill="#374151" opacity="0.18"/><circle cx="564" cy="296" r="1.6" fill="#374151" opacity="0.18"/><circle cx="588" cy="296" r="1.6" fill="#374151" opacity="0.18"/><circle cx="612" cy="296" r="1.6" fill="#374151" opacity="0.18"/><circle cx="636" cy="296" r="1.6" fill="#374151" opacity="0.18"/><circle cx="660" cy="296" r="1.6" fill="#374151" opacity="0.18"/><circle cx="684" cy="296" r="1.6" fill="#374151" opacity="0.18"/><circle cx="708" cy="296" r="1.6" fill="#374151" opacity="0.18"/><circle cx="732" cy="296" r="1.6" fill="#374151" opacity="0.18"/><circle cx="756" cy="296" r="1.6" fill="#374151" opacity="0.18"/><circle cx="780" cy="296" r="1.6" fill="#374151" opacity="0.18"/><circle cx="804" cy="296" r="1.6" fill="#374151" opacity="0.18"/><circle cx="828" cy="296" r="1.6" fill="#374151" opacity="0.18"/><circle cx="852" cy="296" r="1.6" fill="#374151" opacity="0.18"/><circle cx="876" cy="296" r="1.6" fill="#374151" opacity="0.18"/><circle cx="900" cy="296" r="1.6" fill="#374151" opacity="0.18"/><circle cx="924" cy="296" r="1.6" fill="#374151" opacity="0.18"/><circle cx="948" cy="296" r="1.6" fill="#374151" opacity="0.18"/><circle cx="972" cy="296" r="1.6" fill="#374151" opacity="0.18"/><circle cx="996" cy="296" r="1.6" fill="#374151" opacity="0.18"/><circle cx="1020" cy="296" r="1.6" fill="#374151" opacity="0.18"/><circle cx="1044" cy="296" r="1.6" fill="#374151" opacity="0.18"/><circle cx="1068" cy="296" r="1.6" fill="#374151" opacity="0.18"/><circle cx="1092" cy="296" r="1.6" fill="#374151" opacity="0.18"/><circle cx="1116" cy="296" r="1.6" fill="#374151" opacity="0.18"/><circle cx="1140" cy="296" r="1.6" fill="#374151" opacity="0.18"/><circle cx="1164" cy="296" r="1.6" fill="#374151" opacity="0.18"/><circle cx="1188" cy="296" r="1.6" fill="#374151" opacity="0.18"/><circle cx="1212" cy="296" r="1.6" fill="#374151" opacity="0.18"/><circle cx="1236" cy="296" r="1.6" fill="#374151" opacity="0.18"/><circle cx="1260" cy="296" r="1.6" fill="#374151" opacity="0.18"/><circle cx="1284" cy="296" r="1.6" fill="#374151" opacity="0.18"/><circle cx="1308" cy="296" r="1.6" fill="#374151" opacity="0.18"/><circle cx="1332" cy="296" r="1.6" fill="#374151" opacity="0.18"/><circle cx="1356" cy="296" r="1.6" fill="#374151" opacity="0.18"/><circle cx="1380" cy="296" r="1.6" fill="#374151" opacity="0.18"/><circle cx="1404" cy="296" r="1.6" fill="#374151" opacity="0.18"/><circle cx="1428" cy="296" r="1.6" fill="#374151" opacity="0.18"/><circle cx="1452" cy="296" r="1.6" fill="#374151" opacity="0.18"/><circle cx="1476" cy="296" r="1.6" fill="#374151" opacity="0.18"/><circle cx="1500" cy="296" r="1.6" fill="#374151" opacity="0.18"/><circle cx="1524" cy="296" r="1.6" fill="#374151" opacity="0.18"/><circle cx="60" cy="320" r="1.6" fill="#374151" opacity="0.18"/><circle cx="84" cy="320" r="1.6" fill="#374151" opacity="0.18"/><circle cx="108" cy="320" r="1.6" fill="#374151" opacity="0.18"/><circle cx="132" cy="320" r="1.6" fill="#374151" opacity="0.18"/><circle cx="156" cy="320" r="1.6" fill="#374151" opacity="0.18"/><circle cx="180" cy="320" r="1.6" fill="#374151" opacity="0.18"/><circle cx="204" cy="320" r="1.6" fill="#374151" opacity="0.18"/><circle cx="228" cy="320" r="1.6" fill="#374151" opacity="0.18"/><circle cx="252" cy="320" r="1.6" fill="#374151" opacity="0.18"/><circle cx="276" cy="320" r="1.6" fill="#374151" opacity="0.18"/><circle cx="300" cy="320" r="1.6" fill="#374151" opacity="0.18"/><circle cx="324" cy="320" r="1.6" fill="#374151" opacity="0.18"/><circle cx="348" cy="320" r="1.6" fill="#374151" opacity="0.18"/><circle cx="372" cy="320" r="1.6" fill="#374151" opacity="0.18"/><circle cx="396" cy="320" r="1.6" fill="#374151" opacity="0.18"/><circle cx="420" cy="320" r="1.6" fill="#374151" opacity="0.18"/><circle cx="444" cy="320" r="1.6" fill="#374151" opacity="0.18"/><circle cx="468" cy="320" r="1.6" fill="#374151" opacity="0.18"/><circle cx="492" cy="320" r="1.6" fill="#374151" opacity="0.18"/><circle cx="516" cy="320" r="1.6" fill="#374151" opacity="0.18"/><circle cx="540" cy="320" r="1.6" fill="#374151" opacity="0.18"/><circle cx="564" cy="320" r="1.6" fill="#374151" opacity="0.18"/><circle cx="588" cy="320" r="1.6" fill="#374151" opacity="0.18"/><circle cx="612" cy="320" r="1.6" fill="#374151" opacity="0.18"/><circle cx="636" cy="320" r="1.6" fill="#374151" opacity="0.18"/><circle cx="660" cy="320" r="1.6" fill="#374151" opacity="0.18"/><circle cx="684" cy="320" r="1.6" fill="#374151" opacity="0.18"/><circle cx="708" cy="320" r="1.6" fill="#374151" opacity="0.18"/><circle cx="732" cy="320" r="1.6" fill="#374151" opacity="0.18"/><circle cx="756" cy="320" r="1.6" fill="#374151" opacity="0.18"/><circle cx="780" cy="320" r="1.6" fill="#374151" opacity="0.18"/><circle cx="804" cy="320" r="1.6" fill="#374151" opacity="0.18"/><circle cx="828" cy="320" r="1.6" fill="#374151" opacity="0.18"/><circle cx="852" cy="320" r="1.6" fill="#374151" opacity="0.18"/><circle cx="876" cy="320" r="1.6" fill="#374151" opacity="0.18"/><circle cx="900" cy="320" r="1.6" fill="#374151" opacity="0.18"/><circle cx="924" cy="320" r="1.6" fill="#374151" opacity="0.18"/><circle cx="948" cy="320" r="1.6" fill="#374151" opacity="0.18"/><circle cx="972" cy="320" r="1.6" fill="#374151" opacity="0.18"/><circle cx="996" cy="320" r="1.6" fill="#374151" opacity="0.18"/><circle cx="1020" cy="320" r="1.6" fill="#374151" opacity="0.18"/><circle cx="1044" cy="320" r="1.6" fill="#374151" opacity="0.18"/><circle cx="1068" cy="320" r="1.6" fill="#374151" opacity="0.18"/><circle cx="1092" cy="320" r="1.6" fill="#374151" opacity="0.18"/><circle cx="1116" cy="320" r="1.6" fill="#374151" opacity="0.18"/><circle cx="1140" cy="320" r="1.6" fill="#374151" opacity="0.18"/><circle cx="1164" cy="320" r="1.6" fill="#374151" opacity="0.18"/><circle cx="1188" cy="320" r="1.6" fill="#374151" opacity="0.18"/><circle cx="1212" cy="320" r="1.6" fill="#374151" opacity="0.18"/><circle cx="1236" cy="320" r="1.6" fill="#374151" opacity="0.18"/><circle cx="1260" cy="320" r="1.6" fill="#374151" opacity="0.18"/><circle cx="1284" cy="320" r="1.6" fill="#374151" opacity="0.18"/><circle cx="1308" cy="320" r="1.6" fill="#374151" opacity="0.18"/><circle cx="1332" cy="320" r="1.6" fill="#374151" opacity="0.18"/><circle cx="1356" cy="320" r="1.6" fill="#374151" opacity="0.18"/><circle cx="1380" cy="320" r="1.6" fill="#374151" opacity="0.18"/><circle cx="1404" cy="320" r="1.6" fill="#374151" opacity="0.18"/><circle cx="1428" cy="320" r="1.6" fill="#374151" opacity="0.18"/><circle cx="1452" cy="320" r="1.6" fill="#374151" opacity="0.18"/><circle cx="1476" cy="320" r="1.6" fill="#374151" opacity="0.18"/><circle cx="1500" cy="320" r="1.6" fill="#374151" opacity="0.18"/><circle cx="1524" cy="320" r="1.6" fill="#374151" opacity="0.18"/>
    <text x="70" y="120" font-family="system-ui, -apple-system, Segoe UI, Roboto, Helvetica, Arial, sans-serif"
          font-size="26" font-weight="700" fill="#111827">Your Company</text>
    <text x="70" y="154" font-family="system-ui, -apple-system, Segoe UI, Roboto, Helvetica, Arial, sans-serif"
          font-size="16" fill="#374151">123 Industrial Estate, City, Country</text>
    <text x="70" y="176" font-family="system-ui, -apple-system, Segoe UI, Roboto, Helvetica, Arial, sans-serif"
          font-size="16" fill="#374151">support@company.com · +91 98765 43210</text>
    <text x="70" y="208" font-family="system-ui, -apple-system, Segoe UI, Roboto, Helvetica, Arial, sans-serif"
          font-size="14" fill="#374151">© 2025 Your Company. All rights reserved.</text>
    <text x="760" y="112" font-size="16" font-weight="700" font-family="system-ui,-apple-system,Segoe UI,Roboto,Helvetica,Arial,sans-serif" fill="#374151">Materials</text><text x="760" y="134" font-size="14" font-family="system-ui,-apple-system,Segoe UI,Roboto,Helvetica,Arial,sans-serif" fill="#374151" opacity="0.85">Carbon Steel</text><text x="760" y="156" font-size="14" font-family="system-ui,-apple-system,Segoe UI,Roboto,Helvetica,Arial,sans-serif" fill="#374151" opacity="0.85">Alloy Steel</text><text x="760" y="178" font-size="14" font-family="system-ui,-apple-system,Segoe UI,Roboto,Helvetica,Arial,sans-serif" fill="#374151" opacity="0.85">Stainless</text><text x="760" y="200" font-size="14" font-family="system-ui,-apple-system,Segoe UI,Roboto,Helvetica,Arial,sans-serif" fill="#374151" opacity="0.85">Galvanized</text><text x="980" y="112" font-size="16" font-weight="700" font-family="system-ui,-apple-system,Segoe UI,Roboto,Helvetica,Arial,sans-serif" fill="#374151">Network</text><text x="980" y="134" font-size="14" font-family="system-ui,-apple-system,Segoe UI,Roboto,Helvetica,Arial,sans-serif" fill="#374151" opacity="0.85">Distributors</text><text x="980" y="156" font-size="14" font-family="system-ui,-apple-system,Segoe UI,Roboto,Helvetica,Arial,sans-serif" fill="#374151" opacity="0.85">Partners</text><text x="980" y="178" font-size="14" font-family="system-ui,-apple-system,Segoe UI,Roboto,Helvetica,Arial,sans-serif" fill="#374151" opacity="0.85">Affiliates</text><text x="980" y="200" font-size="14" font-family="system-ui,-apple-system,Segoe UI,Roboto,Helvetica,Arial,sans-serif" fill="#374151" opacity="0.85">Suppliers</text><text x="1200" y="112" font-size="16" font-weight="700" font-family="system-ui,-apple-system,Segoe UI,Roboto,Helvetica,Arial,sans-serif" fill="#374151">More</text><text x="1200" y="134" font-size="14" font-family="system-ui,-apple-system,Segoe UI,Roboto,Helvetica,Arial,sans-serif" fill="#374151" opacity="0.85">Docs</text><text x="1200" y="156" font-size="14" font-family="system-ui,-apple-system,Segoe UI,Roboto,Helvetica,Arial,sans-serif" fill="#374151" opacity="0.85">APIs</text><text x="1200" y="178" font-size="14" font-family="system-ui,-apple-system,Segoe UI,Roboto,Helvetica,Arial,sans-serif" fill="#374151" opacity="0.85">Status</text><text x="1200" y="200" font-size="14" font-family="system-ui,-apple-system,Segoe UI,Roboto,Helvetica,Arial,sans-serif" fill="#374151" opacity="0.85">Security</text><circle cx="84.0" cy="294.0" r="14.0" fill="none" stroke="#374151" stroke-width="2"/><text x="84.0" y="299.0" text-anchor="middle" font-family="system-ui, -apple-system, Segoe UI, Roboto, Helvetica, Arial, sans-serif" font-weight="700" font-size="14" fill="#374151">in</text><circle cx="130.0" cy="294.0" r="14.0" fill="none" stroke="#374151" stroke-width="2"/><text x="130.0" y="299.0" text-anchor="middle" font-family="system-ui, -apple-system, Segoe UI, Roboto, Helvetica, Arial, sans-serif" font-weight="700" font-size="14" fill="#374151">x</text><circle cx="176.0" cy="294.0" r="14.0" fill="none" stroke="#374151" stroke-width="2"/><text x="176.0" y="299.0" text-anchor="middle" font-family="system-ui, -apple-system, Segoe UI, Roboto, Helvetica, Arial, sans-serif" font-weight="700" font-size="14" fill="#374151">ig</text><circle cx="222.0" cy="294.0" r="14.0" fill="none" stroke="#374151" stroke-width="2"/><text x="222.0" y="299.0" text-anchor="middle" font-family="system-ui, -apple-system, Segoe UI, Roboto, Helvetica, Arial, sans-serif" font-weight="700" font-size="14" fill="#374151">fb</text><rect x="1320" y="300" rx="12" ry="12" width="200" height="44" fill="#0EA5E9" opacity="0.85"/><text x="1420" y="330" font-size="16" font-family="system-ui,-apple-system,Segoe UI,Roboto,Helvetica,Arial,sans-serif" text-anchor="middle" font-weight="700" fill="#0B0F19">Request a Quote</text></svg>