<svg xmlns="http://www.w3.org/2000/svg" width="1600" height="380" viewBox="0 0 1600 380" role="img" aria-label="Website footer design"><rect width="1600" height="380" fill="#111827"/><path d="M 0 92.79 L 10 94.18 L 20 95.54 L 30 96.87 L 40 98.15 L 50 99.38 L 60 100.56 L 70 101.67 L 80 102.71 L 90 103.67 L 100 104.55 L 110 105.33 L 120 106.03 L 130 106.62 L 140 107.11 L 150 107.50 L 160 107.77 L 170 107.94 L 180 108.00 L 190 107.95 L 200 107.78 L 210 107.51 L 220 107.13 L 230 106.64 L 240 106.05 L 250 105.36 L 260 104.58 L 270 103.70 L 280 102.75 L 290 101.71 L 300 100.60 L 310 99.43 L 320 98.19 L 330 96.91 L 340 95.59 L 350 94.23 L 360 92.84 L 370 91.44 L 380 90.02 L 390 88.61 L 400 87.21 L 410 85.82 L 420 84.46 L 430 83.13 L 440 81.85 L 450 80.62 L 460 79.44 L 470 78.33 L 480 77.29 L 490 76.33 L 500 75.45 L 510 74.67 L 520 73.97 L 530 73.38 L 540 72.89 L 550 72.50 L 560 72.23 L 570 72.06 L 580 72.00 L 590 72.05 L 600 72.22 L 610 72.49 L 620 72.87 L 630 73.36 L 640 73.95 L 650 74.64 L 660 75.42 L 670 76.30 L 680 77.25 L 690 78.29 L 700 79.40 L 710 80.57 L 720 81.81 L 730 83.09 L 740 84.41 L 750 85.77 L 760 87.16 L 770 88.56 L 780 89.98 L 790 91.39 L 800 92.79 L 810 94.18 L 820 95.54 L 830 96.87 L 840 98.15 L 850 99.38 L 860 100.56 L 870 101.67 L 880 102.71 L 890 103.67 L 900 104.55 L 910 105.33 L 920 106.03 L 930 106.62 L 940 107.11 L 950 107.50 L 960 107.77 L 970 107.94 L 980 108.00 L 990 107.95 L 1000 107.78 L 1010 107.51 L 1020 107.13 L 1030 106.64 L 1040 106.05 L 1050 105.36 L 1060 104.58 L 1070 103.70 L 1080 102.75 L 1090 101.71 L 1100 100.60 L 1110 99.43 L 1120 98.19 L 1130 96.91 L 1140 95.59 L 1150 94.23 L 1160 92.84 L 1170 91.44 L 1180 90.02 L 1190 88.61 L 1200 87.21 L 1210 85.82 L 1220 84.46 L 1230 83.13 L 1240 81.85 L 1250 80.62 L 1260 79.44 L 1270 78.33 L 1280 77.29 L 1290 76.33 L 1300 75.45 L 1310 74.67 L 1320 73.97 L 1330 73.38 L 1340 72.89 L 1350 72.50 L 1360 72.23 L 1370 72.06 L 1380 72.00 L 1390 72.05 L 1400 72.22 L 1410 72.49 L 1420 72.87 L 1430 73.36 L 1440 73.95 L 1450 74.64 L 1460 75.42 L 1470 76.30 L 1480 77.25 L 1490 78.29 L 1500 79.40 L 1510 80.57 L 1520 81.81 L 1530 83.09 L 1540 84.41 L 1550 85.77 L 1560 87.16 L 1570 88.56 L 1580 89.98 L 1590 91.39 L 1600 92.79 L 1600 380 L 0 380 Z" fill="#EF4444" opacity="0.15"/>
    <text x="80" y="150" font-family="system-ui, -apple-system, Segoe UI, Roboto, Helvetica, Arial, sans-serif"
          font-size="26" font-weight="700" fill="#FFFFFF">Your Company</text>
    <text x="80" y="184" font-family="system-ui, -apple-system, Segoe UI, Roboto, Helvetica, Arial, sans-serif"
          font-size="16" fill="#E5E7EB">123 Industrial Estate, City, Country</text>
    <text x="80" y="206" font-family="system-ui, -apple-system, Segoe UI, Roboto, Helvetica, Arial, sans-serif"
          font-size="16" fill="#E5E7EB">support@company.com · +91 98765 43210</text>
    <text x="80" y="238" font-family="system-ui, -apple-system, Segoe UI, Roboto, Helvetica, Arial, sans-serif"
          font-size="14" fill="#E5E7EB">© 2025 Your Company. All rights reserved.</text>
    <text x="720" y="130" font-size="16" font-weight="700" font-family="system-ui,-apple-system,Segoe UI,Roboto,Helvetica,Arial,sans-serif" fill="#E5E7EB">Products</text><text x="720" y="152" font-size="14" font-family="system-ui,-apple-system,Segoe UI,Roboto,Helvetica,Arial,sans-serif" fill="#E5E7EB" opacity="0.85">Steel Sheets</text><text x="720" y="174" font-size="14" font-family="system-ui,-apple-system,Segoe UI,Roboto,Helvetica,Arial,sans-serif" fill="#E5E7EB" opacity="0.85">Alloy Bars</text><text x="720" y="196" font-size="14" font-family="system-ui,-apple-system,Segoe UI,Roboto,Helvetica,Arial,sans-serif" fill="#E5E7EB" opacity="0.85">Pipes</text><text x="720" y="218" font-size="14" font-family="system-ui,-apple-system,Segoe UI,Roboto,Helvetica,Arial,sans-serif" fill="#E5E7EB" opacity="0.85">Profiles</text><text x="940" y="130" font-size="16" font-weight="700" font-family="system-ui,-apple-system,Segoe UI,Roboto,Helvetica,Arial,sans-serif" fill="#E5E7EB">Company</text><text x="940" y="152" font-size="14" font-family="system-ui,-apple-system,Segoe UI,Roboto,Helvetica,Arial,sans-serif" fill="#E5E7EB" opacity="0.85">About</text><text x="940" y="174" font-size="14" font-family="system-ui,-apple-system,Segoe UI,Roboto,Helvetica,Arial,sans-serif" fill="#E5E7EB" opacity="0.85">Careers</text><text x="940" y="196" font-size="14" font-family="system-ui,-apple-system,Segoe UI,Roboto,Helvetica,Arial,sans-serif" fill="#E5E7EB" opacity="0.85">Press</text><text x="940" y="218" font-size="14" font-family="system-ui,-apple-system,Segoe UI,Roboto,Helvetica,Arial,sans-serif" fill="#E5E7EB" opacity="0.85">Investors</text><text x="1160" y="130" font-size="16" font-weight="700" font-family="system-ui,-apple-system,Segoe UI,Roboto,Helvetica,Arial,sans-serif" fill="#E5E7EB">Support</text><text x="1160" y="152" font-size="14" font-family="system-ui,-apple-system,Segoe UI,Roboto,Helvetica,Arial,sans-serif" fill="#E5E7EB" opacity="0.85">Help Center</text><text x="1160" y="174" font-size="14" font-family="system-ui,-apple-system,Segoe UI,Roboto,Helvetica,Arial,sans-serif" fill="#E5E7EB" opacity="0.85">Contact</text><text x="1160" y="196" font-size="14" font-family="system-ui,-apple-system,Segoe UI,Roboto,Helvetica,Arial,sans-serif" fill="#E5E7EB" opacity="0.85">Privacy</text><text x="1160" y="218" font-size="14" font-family="system-ui,-apple-system,Segoe UI,Roboto,Helvetica,Arial,sans-serif" fill="#E5E7EB" opacity="0.85">Terms</text><circle cx="94.0" cy="294.0" r="14.0" fill="none" stroke="#E5E7EB" stroke-width="2"/><text x="94.0" y="299.0" text-anchor="middle" font-family="system-ui, -apple-system, Segoe UI, Roboto, Helvetica, Arial, sans-serif" font-weight="700" font-size="14" fill="#E5E7EB">in</text><circle cx="140.0" cy="294.0" r="14.0" fill="none" stroke="#E5E7EB" stroke-width="2"/><text x="140.0" y="299.0" text-anchor="middle" font-family="system-ui, -apple-system, Segoe UI, Roboto, Helvetica, Arial, sans-serif" font-weight="700" font-size="14" fill="#E5E7EB">x</text><circle cx="186.0" cy="294.0" r="14.0" fill="none" stroke="#E5E7EB" stroke-width="2"/><text x="186.0" y="299.0" text-anchor="middle" font-family="system-ui, -apple-system, Segoe UI, Roboto, Helvetica, Arial, sans-serif" font-weight="700" font-size="14" fill="#E5E7EB">ig</text><circle cx="232.0" cy="294.0" r="14.0" fill="none" stroke="#E5E7EB" stroke-width="2"/><text x="232.0" y="299.0" text-anchor="middle" font-family="system-ui, -apple-system, Segoe UI, Roboto, Helvetica, Arial, sans-serif" font-weight="700" font-size="14" fill="#E5E7EB">fb</text></svg>